<?xml version="1.0" encoding="UTF-8"?>
<svg version="1.1" xmlns="http://www.w3.org/2000/svg" width="580" height="230">
<path d="M0 0 C191.4 0 382.8 0 580 0 C580 75.9 580 151.8 580 230 C388.6 230 197.2 230 0 230 C0 154.1 0 78.2 0 0 Z " fill="#230076" transform="translate(0,0)"/>
<path d="M0 0 C0.89668396 -0.0065712 1.79336792 -0.0131424 2.71722412 -0.01991272 C5.67932225 -0.03959044 8.6413697 -0.05129875 11.60351562 -0.0612793 C12.61976517 -0.06535482 13.63601471 -0.06943035 14.68305969 -0.07362938 C20.06669916 -0.09447098 25.45031332 -0.1087785 30.83398438 -0.11816406 C36.36713375 -0.12919797 41.89987761 -0.16356864 47.43288422 -0.20333576 C51.71057835 -0.22961339 55.9881777 -0.23786597 60.26594543 -0.24144554 C62.30388616 -0.24628616 64.34182337 -0.25782714 66.37968445 -0.27648354 C94.32333183 -0.5163149 94.32333183 -0.5163149 103.57226562 8.42700195 C111.08379855 15.82878845 113.1503185 23.21998611 113.24804688 33.52856445 C113.25611862 34.34263763 113.26419037 35.15671082 113.27250671 35.99545288 C113.28631906 37.71854543 113.29705392 39.44166502 113.30493164 41.16479492 C113.31641757 42.91227335 113.33681544 44.65971763 113.36645508 46.40698242 C113.55065813 57.27599171 113.70214156 66.45577168 107.24804688 75.70043945 C100.54557647 82.14459964 93.02862168 87.28878625 85.38574219 92.53735352 C81.21067981 95.41854124 77.07522103 98.3538739 72.94726562 101.30200195 C72.15521729 101.85855469 71.36316895 102.41510742 70.54711914 102.98852539 C69.82194092 103.50705078 69.0967627 104.02557617 68.34960938 104.55981445 C67.7037085 105.01759277 67.05780762 105.47537109 66.39233398 105.94702148 C65.93608643 106.35291504 65.47983887 106.75880859 65.00976562 107.17700195 C65.00976562 107.83700195 65.00976562 108.49700195 65.00976562 109.17700195 C66.93512819 110.70305299 68.86149416 112.10279288 70.88476562 113.48950195 C72.17951984 114.39506121 73.4737665 115.30134648 74.76757812 116.20825195 C75.45883789 116.69036133 76.15009766 117.1724707 76.86230469 117.66918945 C80.5217311 120.23860936 84.13912562 122.86584978 87.75976562 125.48950195 C89.28957459 126.59646484 90.81952412 127.70323349 92.34960938 128.80981445 C93.11644043 129.36443359 93.88327148 129.91905273 94.67333984 130.49047852 C97.01293308 132.17928835 99.35646466 133.86248863 101.70117188 135.54418945 C105.44977119 138.23424036 109.18830325 140.93762965 112.91748047 143.65454102 C114.29554325 144.65729475 115.67602487 145.65673401 117.05908203 146.65258789 C118.92755886 148.0019662 120.78270829 149.36771294 122.63476562 150.73950195 C123.67890625 151.50391602 124.72304688 152.26833008 125.79882812 153.0559082 C126.5284375 153.75586914 127.25804687 154.45583008 128.00976562 155.17700195 C128.00976562 156.49700195 128.00976562 157.81700195 128.00976562 159.17700195 C122.03689171 159.47749484 116.06856392 159.69310442 110.08984375 159.83618164 C108.06432347 159.89590687 106.03930625 159.9773291 104.015625 160.08227539 C90.32623038 160.77352205 81.78292497 159.55301482 71.38427734 150.28686523 C70.80732117 149.75055481 70.23036499 149.21424438 69.63592529 148.66168213 C67.43884385 146.65575164 65.07984597 144.92185201 62.66992188 143.1809082 C59.4466279 140.77023218 56.22898092 138.35222274 53.01367188 135.9309082 C49.7260093 133.45637159 46.42080331 131.00865721 43.09960938 128.5793457 C41.56951469 127.44542914 40.0395601 126.3113235 38.50976562 125.17700195 C37.80988525 124.67370361 37.11000488 124.17040527 36.38891602 123.65185547 C31.61061844 120.07981047 27.70671795 116.25689775 26.65380859 110.09326172 C26.27233984 105.01843421 27.81526308 101.10287745 31.00976562 97.17700195 C38.47293602 89.22778475 47.71062047 83.18412349 56.56494141 76.91479492 C60.71208281 73.9669866 64.82755235 70.97545673 68.94726562 67.98950195 C70.43504837 66.91199038 71.92329251 65.83511545 73.41210938 64.7590332 C74.03593506 64.30761963 74.65976074 63.85620605 75.30249023 63.39111328 C76.85085949 62.29000641 78.42889553 61.23091535 80.00976562 60.17700195 C80.33976562 50.27700195 80.66976562 40.37700195 81.00976562 30.17700195 C52.95976562 30.17700195 24.90976562 30.17700195 -3.99023438 30.17700195 C-3.99023438 72.74700195 -3.99023438 115.31700195 -3.99023438 159.17700195 C-14.88023437 159.17700195 -25.77023437 159.17700195 -36.99023438 159.17700195 C-37.08069916 142.02592245 -37.15431171 124.87504812 -37.19748306 107.72379589 C-37.21806542 99.75929887 -37.24610266 91.79496115 -37.29199219 83.83056641 C-37.33199313 76.88482927 -37.3576986 69.93920757 -37.36658835 62.99335843 C-37.37178082 59.31912359 -37.38389323 55.64521885 -37.4131546 51.97109032 C-37.44563642 47.85883624 -37.44618535 43.74714775 -37.44433594 39.63476562 C-37.45871704 38.43066544 -37.47309814 37.22656525 -37.48791504 35.98597717 C-37.43845491 25.78387383 -35.39548064 16.55054023 -28.18554688 8.96606445 C-19.58691604 1.95863933 -10.71978073 0.03429159 0 0 Z " fill="#FCFBFC" transform="translate(424.990234375,33.822998046875)"/>
<path d="M0 0 C1.89492188 -0.02416992 1.89492188 -0.02416992 3.828125 -0.04882812 C15.31399632 -0.05479791 24.7007378 1.75594082 33.625 9.3125 C42.10584812 18.08962229 43.07045125 27.76533007 42.96557617 39.54321289 C42.96601425 40.84175201 42.96645233 42.14029114 42.96690369 43.47817993 C42.96775894 47.01278537 42.95021029 50.54708086 42.92918181 54.08161473 C42.91033584 57.78514202 42.90865837 61.48867764 42.90510559 65.19224548 C42.89580826 72.19375048 42.87122607 79.19511373 42.84105712 86.19655651 C42.8074408 94.17240961 42.79100898 102.14826975 42.77597082 110.12417614 C42.7446742 126.52037998 42.68969137 142.91638875 42.625 159.3125 C31.735 159.3125 20.845 159.3125 9.625 159.3125 C9.625 116.7425 9.625 74.1725 9.625 30.3125 C-9.56999788 29.21330202 -9.56999788 29.21330202 -15.9609375 34.86328125 C-17.47925674 37.13251477 -17.47925674 37.13251477 -18.75 39.625 C-19.8486026 41.37295757 -20.95026966 43.11899212 -22.0546875 44.86328125 C-22.59448242 45.76643066 -23.13427734 46.66958008 -23.69042969 47.60009766 C-26.45928828 52.05836127 -29.67617213 56.15783239 -32.875 60.3125 C-34.13403124 61.98247748 -35.39054681 63.65435457 -36.64453125 65.328125 C-37.26279785 66.15248047 -37.88106445 66.97683594 -38.51806641 67.82617188 C-42.14394892 72.68102167 -45.72825728 77.56645924 -49.31640625 82.44921875 C-53.45830222 88.08107277 -57.64099777 93.6806302 -61.84545898 99.26586914 C-65.64240131 104.3169966 -69.38747853 109.40480945 -73.125 114.5 C-78.9262928 122.40391642 -84.84795626 130.21071925 -90.80419922 137.99829102 C-96.14739202 144.9916845 -101.4912362 151.9868543 -106.375 159.3125 C-109.3545099 159.57903946 -112.1238582 159.66017784 -115.1015625 159.60546875 C-115.96437836 159.60122391 -116.82719421 159.59697906 -117.71615601 159.59260559 C-120.47775197 159.57578392 -123.23862383 159.53812598 -126 159.5 C-127.86978114 159.48495764 -129.7395737 159.47126846 -131.609375 159.45898438 C-136.19819658 159.42586906 -140.78647544 159.37406339 -145.375 159.3125 C-144.04058629 156.48500036 -142.53730649 154.01639432 -140.6796875 151.50390625 C-140.13650879 150.76720703 -139.59333008 150.03050781 -139.03369141 149.27148438 C-138.44507324 148.48064453 -137.85645508 147.68980469 -137.25 146.875 C-136.33033447 145.63266602 -136.33033447 145.63266602 -135.39208984 144.36523438 C-129.96690999 137.05879724 -124.44919452 129.8237644 -118.921875 122.59448242 C-115.03663871 117.50886368 -111.20104713 112.39681435 -107.4609375 107.203125 C-98.79580282 95.19526046 -89.91457516 83.35551095 -80.92041016 71.59277344 C-77.04088748 66.51422898 -73.20921449 61.41054922 -69.4765625 56.22265625 C-64.75296281 49.68161207 -59.94659411 43.20067444 -55.14892578 36.71386719 C-54.00204102 35.16132679 -52.85705168 33.60738364 -51.71435547 32.05175781 C-31.10314212 3.99321975 -31.10314212 3.99321975 -16.88012695 0.69189453 C-11.29130588 -0.15451692 -5.63951907 -0.01429898 0 0 Z " fill="#FCFAFC" transform="translate(310.375,33.6875)"/>
<path d="M0 0 C10.56 0 21.12 0 32 0 C32 42.57 32 85.14 32 129 C52.21983514 130.49044648 52.21983514 130.49044648 59.5625 120.9375 C61.17504388 118.66353787 61.17504388 118.66353787 62.32421875 116.515625 C64.87050939 112.13559366 67.77628915 108.18808577 70.875 104.1875 C71.88038878 102.85365686 72.8829506 101.51767864 73.8828125 100.1796875 C74.64513184 99.1602002 74.64513184 99.1602002 75.42285156 98.12011719 C78.21678018 94.36431594 80.98090658 90.58662564 83.75 86.8125 C88.83932753 79.87702992 94.01890284 73.01657806 99.25 66.1875 C103.99113281 59.9970662 108.64781947 53.77247319 113.12939453 47.39208984 C117.66190335 40.98406013 122.46843585 34.78368244 127.23803711 28.55151367 C130.71944864 23.99972898 134.18761133 19.44392617 137.5625 14.8125 C138.1201001 14.0702417 138.6777002 13.3279834 139.25219727 12.56323242 C141.06139211 10.07601441 141.06139211 10.07601441 142.16601562 7.36450195 C143.78070745 4.10939702 145.11879717 2.25297654 148 0 C154.42009538 -1.71078307 161.37472916 -0.93415195 167.9375 -0.625 C169.78438523 -0.5747997 171.63140099 -0.52917919 173.47851562 -0.48828125 C177.9889132 -0.37846251 182.49302078 -0.20617471 187 0 C185.77284362 3.36623632 184.44262322 6.00364355 182.19921875 8.79296875 C181.64073242 9.49655518 181.08224609 10.2001416 180.50683594 10.92504883 C179.90645508 11.67165771 179.30607422 12.4182666 178.6875 13.1875 C173.72113651 19.45975218 168.89953621 25.80175515 164.25 32.3125 C159.83349904 38.48848433 155.31145477 44.54338316 150.65234375 50.5390625 C147.40631126 54.7448024 144.26921696 59.03043277 141.125 63.3125 C134.06716948 72.92446544 126.92082982 82.46732124 119.74609375 91.9921875 C115.18925449 98.05118924 110.67962871 104.1429149 106.1875 110.25 C100.25296429 118.3157447 94.28649414 126.35604237 88.24853516 134.34472656 C87.15380394 135.79609098 86.06651975 137.25306633 84.98046875 138.7109375 C77.04500625 149.20796013 69.51105725 157.00697373 56 159 C51.18447754 159.30336253 46.38638915 159.32481212 41.5625 159.3125 C40.30373047 159.32861328 39.04496094 159.34472656 37.74804688 159.36132812 C26.30371486 159.36729804 16.88083304 157.55634934 8 150 C2.50425105 144.10413228 -0.25561807 138.28937429 -0.24050903 130.11538696 C-0.24325836 128.96281403 -0.24600769 127.81024109 -0.24884033 126.6227417 C-0.24164978 125.37261292 -0.23445923 124.12248413 -0.22705078 122.83447266 C-0.22648613 121.49370329 -0.22680428 120.15293331 -0.22793579 118.81216431 C-0.22850821 115.18448153 -0.21677194 111.55693175 -0.20278788 107.9292798 C-0.19026199 104.13363607 -0.18910855 100.33798909 -0.18673706 96.54232788 C-0.18052775 89.36014021 -0.16412437 82.17801363 -0.14403808 74.99585283 C-0.12166199 66.81691781 -0.11068135 58.63797983 -0.10064721 50.45902181 C-0.07975764 33.6393065 -0.04308828 16.81967531 0 0 Z " fill="#FDFDFD" transform="translate(51,34)"/>
<path d="M0 0 C4.24149069 2.39479792 6.58390385 5.32602694 8.9375 9.5625 C10.69038321 15.98973842 10.30035551 21.67016747 7.03125 27.51953125 C4.08700564 31.44804335 0.29106375 33.77797875 -4.3125 35.3125 C-10.55542825 36.08870778 -15.38558225 35.66485609 -20.55078125 31.9140625 C-25.35423338 27.54728784 -27.59365417 23.3455708 -27.9375 16.8125 C-27.66058289 11.26646571 -26.03342472 7.42102104 -22.3125 3.3125 C-15.48612497 -2.01207253 -8.05007474 -3.73861149 0 0 Z " fill="#FCFAFB" transform="translate(292.3125,124.6875)"/>
<path d="M0 0 C0.98602406 2.95807217 1.12791583 4.88091566 1.13371277 7.96543884 C1.13797775 8.99030899 1.14224274 10.01517914 1.14663696 11.07110596 C1.14618378 12.19482605 1.14573059 13.31854614 1.14526367 14.47631836 C1.14862228 15.66026688 1.1519809 16.84421539 1.15544128 18.06404114 C1.16332021 21.31197234 1.16661923 24.5598652 1.16725707 27.80780482 C1.16820664 30.51907427 1.17188544 33.23033759 1.17542917 35.94160467 C1.1835722 42.33794469 1.18601352 48.73427063 1.18530273 55.13061523 C1.18470181 61.72952089 1.19525693 68.32834484 1.2110464 74.92722982 C1.22411954 80.59270263 1.22948673 86.25814872 1.22884732 91.9236365 C1.22859229 95.3074112 1.23144643 98.69111328 1.24202538 102.07487297 C1.25179052 105.8480806 1.24896096 109.62107628 1.24291992 113.39428711 C1.24853943 114.51598297 1.25415894 115.63767883 1.25994873 116.79336548 C1.25575424 117.82105545 1.25155975 118.84874542 1.24723816 119.90757751 C1.24778293 120.79966384 1.24832769 121.69175016 1.24888897 122.61086941 C0.98299315 125.16325188 0.28795804 126.80001557 -1 129 C1.37528151 128.85796663 3.75015251 128.71148388 6.125 128.5625 C6.79015625 128.52318359 7.4553125 128.48386719 8.140625 128.44335938 C12.15018817 128.187848 16.04994196 127.73217587 20 127 C19.67 127.99 19.34 128.98 19 130 C12.07 130 5.14 130 -2 130 C-2 87.43 -2 44.86 -2 1 C-11.9 1 -21.8 1 -32 1 C-32 0.67 -32 0.34 -32 0 C-27.60454738 -0.19725192 -23.20863314 -0.38110072 -18.8125 -0.5625 C-17.56662109 -0.61857422 -16.32074219 -0.67464844 -15.03710938 -0.73242188 C-13.83505859 -0.78076172 -12.63300781 -0.82910156 -11.39453125 -0.87890625 C-10.28956299 -0.9260376 -9.18459473 -0.97316895 -8.04614258 -1.02172852 C-5.20682971 -1.00147534 -2.75203915 -0.66505747 0 0 Z " fill="#200464" transform="translate(85,33)"/>
<path d="M0 0 C0.33 0 0.66 0 1 0 C1.00238835 0.665921 1.00477671 1.331842 1.00723743 2.01794243 C1.06648257 18.25297655 1.14209314 34.48784469 1.23571491 50.72271538 C1.28059961 58.57391895 1.32003098 66.42507791 1.34643555 74.27636719 C1.36947517 81.12292906 1.40293928 87.96934886 1.44870156 94.81579792 C1.47255379 98.43789759 1.49133475 102.05985725 1.49761391 105.68203354 C1.50483525 109.73467641 1.53533913 113.7868347 1.56762695 117.83935547 C1.56619186 119.02834946 1.56475677 120.21734344 1.5632782 121.44236755 C1.63372512 127.71273787 2.25811631 133.05499153 4.35895061 138.98221016 C5 141 5 141 5 144 C1.0521638 141.63129828 0.18399317 139.37166708 -1 135 C-1.33 134.01 -1.66 133.02 -2 132 C-2.08106829 130.22583628 -2.10193801 128.44866691 -2.08901978 126.67269897 C-2.08342545 125.56776596 -2.07783112 124.46283295 -2.07206726 123.32441711 C-2.06069229 122.11182724 -2.04931732 120.89923737 -2.03759766 119.64990234 C-2.02959641 118.37335281 -2.02159515 117.09680328 -2.01335144 115.78157043 C-1.99115567 112.27967972 -1.9624858 108.77786937 -1.93239641 105.27603865 C-1.90175441 101.61565857 -1.87612035 97.95524284 -1.84970093 94.29483032 C-1.8045128 88.14964565 -1.75503003 82.00450636 -1.703125 75.859375 C-1.64310346 68.74583887 -1.59034438 61.63227616 -1.54135668 54.51865613 C-1.49915792 48.41753849 -1.45310584 42.31645892 -1.40379179 36.21539462 C-1.37431504 32.56850747 -1.34618195 28.92162315 -1.32149124 25.27470016 C-1.29373566 21.21350891 -1.25789616 17.15242881 -1.22119141 13.09130859 C-1.2138649 11.87467026 -1.20653839 10.65803192 -1.19898987 9.40452576 C-1.1821389 7.75558571 -1.1821389 7.75558571 -1.16494751 6.07333374 C-1.15719614 5.11211294 -1.14944477 4.15089214 -1.14145851 3.16054344 C-1 1 -1 1 0 0 Z " fill="#220461" transform="translate(49,35)"/>
<path d="M0 0 C27.72 0 55.44 0 84 0 C84 1.98 84 3.96 84 6 C83.505 4.515 83.505 4.515 83 3 C79.9949417 1.49747085 76.90743067 1.87007241 73.61279297 1.88647461 C72.85172241 1.88632858 72.09065186 1.88618256 71.30651855 1.8860321 C68.78504611 1.88673007 66.26364708 1.89451706 63.7421875 1.90234375 C61.99626709 1.90420834 60.25034616 1.90563205 58.50442505 1.90663147 C53.90454672 1.91045341 49.30469986 1.92028095 44.70483398 1.93133545 C40.0128624 1.94155651 35.32088575 1.94613058 30.62890625 1.95117188 C21.41925699 1.96190349 12.20963111 1.97897606 3 2 C2.0112859 4.96614231 1.86387374 6.9342662 1.84178162 10.03031921 C1.8319928 11.06938416 1.82220398 12.1084491 1.81211853 13.17900085 C1.80636307 14.31835587 1.8006076 15.45771088 1.79467773 16.6315918 C1.78477814 17.83171906 1.77487854 19.03184631 1.76467896 20.26834106 C1.73848617 23.55937547 1.71662621 26.85038555 1.69667697 30.14146018 C1.67480961 33.58080896 1.64742459 37.02011366 1.62062073 40.45942688 C1.57070399 46.97229924 1.52576138 53.48519608 1.48259836 59.99811631 C1.43321728 67.41282598 1.37830238 74.82749141 1.32291877 82.24215829 C1.20911437 97.49473132 1.10227197 112.74734502 1 128 C0.67 128 0.34 128 0 128 C0 85.76 0 43.52 0 0 Z " fill="#1D075A" transform="translate(421,64)"/>
<path d="M0 0 C1.32 0 2.64 0 4 0 C4 0.99 4 1.98 4 3 C3.360625 3.12375 2.72125 3.2475 2.0625 3.375 C1.381875 3.58125 0.70125 3.7875 0 4 C-0.33 4.66 -0.66 5.32 -1 6 C-4.59653458 8.39768972 -6.22523266 8.24541926 -10.49609375 8.23046875 C-11.77677734 8.22853516 -13.05746094 8.22660156 -14.37695312 8.22460938 C-15.043479 8.21840576 -15.71000488 8.21220215 -16.39672852 8.20581055 C-18.42672332 8.18759669 -20.45626025 8.18530072 -22.48632812 8.18554688 C-33.31831209 8.13653337 -33.31831209 8.13653337 -37 7 C-37 5.68 -37 4.36 -37 3 C-25.12 3 -13.24 3 -1 3 C-0.67 2.01 -0.34 1.02 0 0 Z " fill="#F8F5F7" transform="translate(111,185)"/>
<path d="M0 0 C0.99 0.33 1.98 0.66 3 1 C2.6282666 1.47195801 2.2565332 1.94391602 1.87353516 2.43017578 C-5.12348666 11.32900753 -12.0166262 20.26375954 -18.53515625 29.51953125 C-21.34647586 33.50945588 -24.2339537 37.44263778 -27.125 41.375 C-27.61121826 42.03653076 -28.09743652 42.69806152 -28.59838867 43.37963867 C-29.73153964 44.92028855 -30.86565755 46.46022717 -32 48 C-32.87840996 44.90279155 -32.99435406 43.09354597 -32 40 C-31.01 40 -30.02 40 -29 40 C-28.71125 39.21625 -28.4225 38.4325 -28.125 37.625 C-26.85957376 34.67233878 -25.25165349 33.25165349 -23 31 C-23.33 30.01 -23.66 29.02 -24 28 C-23.67 27.67 -23.34 27.34 -23 27 C-22.67 26.01 -22.34 25.02 -22 24 C-20.35 24 -18.7 24 -17 24 C-17.20625 23.401875 -17.4125 22.80375 -17.625 22.1875 C-18 20 -18 20 -16 17 C-13.375 16.8125 -13.375 16.8125 -11 17 C-11.20625 16.05125 -11.4125 15.1025 -11.625 14.125 C-11.74875 13.09375 -11.8725 12.0625 -12 11 C-11.34 10.34 -10.68 9.68 -10 9 C-9.28591666 7.01643517 -8.61382258 5.01684563 -8 3 C-7.34 3.33 -6.68 3.66 -6 4 C-6.33 5.65 -6.66 7.3 -7 9 C-6.34 9 -5.68 9 -5 9 C-4.731875 7.88625 -4.46375 6.7725 -4.1875 5.625 C-3 2 -3 2 0 0 Z " fill="#260B6B" transform="translate(176,62)"/>
<path d="M0 0 C40.92 0 81.84 0 124 0 C124 0.99 124 1.98 124 3 C94.32798877 3.14713768 64.66875034 2.90899544 35 2.5 C34.13229477 2.48804218 33.26458954 2.47608437 32.37059021 2.46376419 C21.58031417 2.31456664 10.79012307 2.15987271 0 2 C0 1.34 0 0.68 0 0 Z " fill="#2E008B" transform="translate(194,1)"/>
<path d="M0 0 C0.33 0 0.66 0 1 0 C1.15387695 16.11572745 1.3019109 32.23149627 1.4429636 48.34734058 C1.50859148 55.82997752 1.57614091 63.31258795 1.64819336 70.79516602 C1.71097961 77.31596254 1.77018155 83.83677999 1.82505554 90.35764807 C1.85424432 93.81130182 1.88524403 97.26491815 1.92053413 100.7185154 C1.9598349 104.57117352 1.99113431 108.42387372 2.02172852 112.27661133 C2.03467453 113.42531708 2.04762054 114.57402283 2.06095886 115.75753784 C2.06799835 116.80501694 2.07503784 117.85249603 2.08229065 118.93171692 C2.09058679 119.84337018 2.09888292 120.75502344 2.10743046 121.69430256 C2 124 2 124 1 127 C3.37528151 126.85796663 5.75015251 126.71148388 8.125 126.5625 C8.79015625 126.52318359 9.4553125 126.48386719 10.140625 126.44335938 C14.15018817 126.187848 18.04994196 125.73217587 22 125 C21.67 125.99 21.34 126.98 21 128 C14.07 128 7.14 128 0 128 C0 85.76 0 43.52 0 0 Z " fill="#1D084E" transform="translate(83,35)"/>
<path d="M0 0 C0.33 0 0.66 0 1 0 C1.79634164 3.51381647 2.13135588 6.76878914 2.15148926 10.36885071 C2.15983292 11.43276031 2.16817657 12.49666992 2.17677307 13.59281921 C2.18095749 14.74981827 2.18514191 15.90681732 2.18945312 17.09887695 C2.19774643 18.32546021 2.20603973 19.55204346 2.21458435 20.8157959 C2.23197517 23.4785461 2.24763038 26.14124023 2.26036072 28.80401039 C2.28064767 33.01986686 2.30829282 37.23565566 2.33703613 41.45146179 C2.3970467 50.40510934 2.44889945 59.35879785 2.5 68.3125 C2.55516097 77.96951483 2.61179578 87.62650901 2.67754889 97.28345841 C2.7057704 101.46852231 2.72941222 105.65357883 2.74947357 109.83868945 C2.76609867 113.06346357 2.78883645 116.28819617 2.81054688 119.51293945 C2.81473129 120.66386581 2.81891571 121.81479218 2.82322693 123.00059509 C2.86802029 128.75766347 3.13664367 134.3059016 4 140 C3.01 139.67 2.02 139.34 1 139 C0.99576806 138.32523809 0.99153612 137.65047619 0.98717594 136.95526695 C0.88382939 120.52976656 0.77518567 104.1043106 0.66066074 87.67888451 C0.60540464 79.73564477 0.55193527 71.79240053 0.50268555 63.84912109 C0.45975032 56.92501385 0.41344902 50.00093866 0.36312145 43.07688105 C0.33659561 39.41134515 0.3117447 35.74581529 0.29092598 32.08024216 C0.2676108 27.98622676 0.23678006 23.89230078 0.20532227 19.79833984 C0.1995668 18.58561401 0.19381134 17.37288818 0.18788147 16.12341309 C0.17809265 15.00449677 0.16830383 13.88558044 0.15821838 12.73275757 C0.15176583 11.76487494 0.14531328 10.7969923 0.1386652 9.79977989 C0.05236467 6.90347205 0.05236467 6.90347205 -0.57238865 3.70420265 C-0.71350039 2.81181578 -0.85461214 1.9194289 -1 1 C-0.67 0.67 -0.34 0.34 0 0 Z " fill="#1D075C" transform="translate(352,53)"/>
<path d="M0 0 C-0.33 1.32 -0.66 2.64 -1 4 C-1.495 3.01 -1.495 3.01 -2 2 C-7.28 2 -12.56 2 -18 2 C-18.0825 3.258125 -18.165 4.51625 -18.25 5.8125 C-18.74706228 9.71996181 -18.74706228 9.71996181 -20.75 11.9375 C-23 13 -23 13 -25.625 13.4375 C-28.12849437 13.7429728 -28.12849437 13.7429728 -29.1875 15.8125 C-29.455625 16.534375 -29.72375 17.25625 -30 18 C-30.875 20.1875 -30.875 20.1875 -32 22 C-34.125 22.75 -34.125 22.75 -36 23 C-36 23.66 -36 24.32 -36 25 C-37.32 25.33 -38.64 25.66 -40 26 C-38.75484309 24.00433755 -37.46367341 22.0625688 -36.1171875 20.1328125 C-34.4461881 17.66022668 -32.94484469 15.19110978 -31.4453125 12.6171875 C-23.04291544 -0.87688719 -15.39999931 -2.41341643 0 0 Z " fill="#240870" transform="translate(320,64)"/>
<path d="M0 0 C1.32 0 2.64 0 4 0 C4 1.32 4 2.64 4 4 C4.66 4 5.32 4 6 4 C6.33 3.01 6.66 2.02 7 1 C7.66 1 8.32 1 9 1 C8.32718896 5.37327173 6.77390849 6.83913726 4 11 C16.21 11 28.42 11 41 11 C41 11.33 41 11.66 41 12 C40.12263184 12.02505615 39.24526367 12.0501123 38.34130859 12.07592773 C35.06482809 12.17145384 31.78850102 12.27066243 28.51220703 12.37231445 C27.09818835 12.41544251 25.68412498 12.45713168 24.27001953 12.49731445 C22.2293556 12.5555575 20.18891205 12.61909141 18.1484375 12.68359375 C16.92302246 12.72025146 15.69760742 12.75690918 14.43505859 12.79467773 C11.22247789 12.98670193 8.16837981 13.46118536 5 14 C2.875 13.625 2.875 13.625 1 13 C0.2575 12.814375 -0.485 12.62875 -1.25 12.4375 C-1.8275 12.293125 -2.405 12.14875 -3 12 C-3 9.69 -3 7.38 -3 5 C-2.34 4.67 -1.68 4.34 -1 4 C-0.34786708 1.97536745 -0.34786708 1.97536745 0 0 Z " fill="#240375" transform="translate(161,182)"/>
<path d="M0 0 C0.66022156 0.02361099 1.32044312 0.04722198 2.00067139 0.07154846 C4.099644 0.14783435 6.19821449 0.23200778 8.296875 0.31640625 C9.72393897 0.36966215 11.15102228 0.42240229 12.578125 0.47460938 C16.06795233 0.60340124 19.55746298 0.73926644 23.046875 0.87890625 C23.046875 1.20890625 23.046875 1.53890625 23.046875 1.87890625 C12.816875 1.87890625 2.586875 1.87890625 -7.953125 1.87890625 C-8.613125 3.52890625 -9.273125 5.17890625 -9.953125 6.87890625 C-11.20705548 8.63068174 -12.52352418 10.33894548 -13.890625 12.00390625 C-14.92509766 13.27621094 -14.92509766 13.27621094 -15.98046875 14.57421875 C-17.57398417 16.43594963 -19.18638454 18.18416462 -20.953125 19.87890625 C-20.953125 18.55890625 -20.953125 17.23890625 -20.953125 15.87890625 C-20.293125 15.87890625 -19.633125 15.87890625 -18.953125 15.87890625 C-18.623125 13.56890625 -18.293125 11.25890625 -17.953125 8.87890625 C-17.293125 8.87890625 -16.633125 8.87890625 -15.953125 8.87890625 C-14.62329015 6.89320047 -13.51334041 4.82291315 -12.3671875 2.7265625 C-9.36970751 -1.19003428 -4.53234285 -0.17284358 0 0 Z " fill="#230B64" transform="translate(206.953125,32.12109375)"/>
<path d="M0 0 C0.66 0.33 1.32 0.66 2 1 C1.2575 2.1446875 1.2575 2.1446875 0.5 3.3125 C-1.53412719 8.31306266 -1.84570659 12.66902809 -1 18 C0.10790942 20.34661371 1.33504735 22.28372874 2.90625 24.34375 C4 26 4 26 4 29 C3.67 28.34 3.34 27.68 3 27 C1.02 27.33 -0.96 27.66 -3 28 C-4.0625 25.625 -4.0625 25.625 -5 23 C-4.67 22.34 -4.34 21.68 -4 21 C-4.185625 19.824375 -4.37125 18.64875 -4.5625 17.4375 C-5.26315136 12.66431261 -4.28720714 8.59564862 -3 4 C-2.34 4 -1.68 4 -1 4 C-0.67 2.68 -0.34 1.36 0 0 Z " fill="#240A61" transform="translate(267,129)"/>
<path d="M0 0 C1.65 0 3.3 0 5 0 C4.62725409 2.58242263 4.26502965 3.75371607 2.32592773 5.55566406 C1.61895752 6.03745117 0.9119873 6.51923828 0.18359375 7.015625 C-0.96206055 7.80839844 -0.96206055 7.80839844 -2.13085938 8.6171875 C-3.33452148 9.42542969 -3.33452148 9.42542969 -4.5625 10.25 C-5.36880859 10.80429688 -6.17511719 11.35859375 -7.00585938 11.9296875 C-8.99729923 13.29659296 -10.99524923 14.65272637 -13 16 C-13.66 15.34 -14.32 14.68 -15 14 C-14.34 14 -13.68 14 -13 14 C-12.67 12.02 -12.34 10.04 -12 8 C-10 8 -8 8 -6 8 C-5.01 5.69 -4.02 3.38 -3 1 C-2.01 1.33 -1.02 1.66 0 2 C0 1.34 0 0.68 0 0 Z " fill="#250C6A" transform="translate(483,104)"/>
<path d="M0 0 C0 0.99 0 1.98 0 3 C-0.75023437 3.25652344 -1.50046875 3.51304688 -2.2734375 3.77734375 C-9.49091615 6.47708072 -14.52919134 9.72432293 -20.0390625 15.109375 C-22 17 -22 17 -24 18 C-24 15.69 -24 13.38 -24 11 C-23.360625 10.896875 -22.72125 10.79375 -22.0625 10.6875 C-21.0415625 10.3471875 -21.0415625 10.3471875 -20 10 C-19.67 9.01 -19.34 8.02 -19 7 C-17.68 7.33 -16.36 7.66 -15 8 C-15 7.01 -15 6.02 -15 5 C-13.68 5.33 -12.36 5.66 -11 6 C-10.67 5.01 -10.34 4.02 -10 3 C-7.4107463 -0.88388055 -4.34408418 -0.24589156 0 0 Z " fill="#260F6A" transform="translate(294,32)"/>
<path d="M0 0 C0.66 1.32 1.32 2.64 2 4 C1.195625 4.391875 0.39125 4.78375 -0.4375 5.1875 C-1.283125 5.785625 -2.12875 6.38375 -3 7 C-3.12375 7.763125 -3.2475 8.52625 -3.375 9.3125 C-4.24285021 13.04425591 -6.3695577 14.19440996 -9.28125 16.52734375 C-12.99724265 19.71127381 -14.32234724 23.25643071 -15 28 C-17.31 28.66 -19.62 29.32 -22 30 C-17.81759771 23.42036712 -13.19453724 17.25699997 -8.4140625 11.109375 C-5.56422237 7.43870714 -2.77646316 3.72630582 0 0 Z " fill="#F0E8F9" transform="translate(272,48)"/>
<path d="M0 0 C0.33 1.32 0.66 2.64 1 4 C0.01 4.495 0.01 4.495 -1 5 C-1 5.99 -1 6.98 -1 8 C-1.64710938 8.45117188 -2.29421875 8.90234375 -2.9609375 9.3671875 C-5.23203719 10.83569414 -5.23203719 10.83569414 -5.5390625 13.4453125 C-5.56742188 14.32960937 -5.59578125 15.21390625 -5.625 16.125 C-5.7265625 18.8203125 -5.7265625 18.8203125 -6 21 C-6.66 21.33 -7.32 21.66 -8 22 C-8.66 21.34 -9.32 20.68 -10 20 C-10.33 20 -10.66 20 -11 20 C-11.3403125 20.928125 -11.3403125 20.928125 -11.6875 21.875 C-13.37929835 24.61410209 -14.99244161 25.05024472 -18 26 C-15.33976293 21.12905666 -12.45291059 16.77456496 -9 12.4375 C-5.8058963 8.39647486 -2.80721025 4.32128429 0 0 Z " fill="#2A0A74" transform="translate(162,136)"/>
<path d="M0 0 C0.99 0.33 1.98 0.66 3 1 C1.02 3.31 -0.96 5.62 -3 8 C-3.99 7.67 -4.98 7.34 -6 7 C-6 8.32 -6 9.64 -6 11 C-7.65 10.67 -9.3 10.34 -11 10 C-9.88820837 13.33537489 -8.52588702 14.63707344 -6 17 C-6.33 17.66 -6.66 18.32 -7 19 C-9.64 17.02 -12.28 15.04 -15 13 C-13.60295439 8.80886317 -10.59561852 7.20229332 -7.125 4.75 C-6.48691406 4.27820313 -5.84882813 3.80640625 -5.19140625 3.3203125 C-3.51965341 2.12670192 -1.76323251 1.05379072 0 0 Z " fill="#250E62" transform="translate(504,130)"/>
<path d="M0 0 C0.33 0 0.66 0 1 0 C1 9.9 1 19.8 1 30 C0.67 30 0.34 30 0 30 C0 27.36 0 24.72 0 22 C-0.99 21.67 -1.98 21.34 -3 21 C-3 16.71 -3 12.42 -3 8 C-2.01 7.67 -1.02 7.34 0 7 C0 4.69 0 2.38 0 0 Z " fill="#30157C" transform="translate(505,64)"/>
<path d="M0 0 C0.99 0.4021875 0.99 0.4021875 2 0.8125 C4.34969008 1.74258566 6.70134426 2.66217146 9.0625 3.5625 C9.71347656 3.81128906 10.36445312 4.06007812 11.03515625 4.31640625 C15.46599153 5.85794934 19.4648019 6.18136727 24.171875 6.31640625 C24.8542926 6.33718735 25.53671021 6.35796844 26.23980713 6.37937927 C28.40977356 6.44452052 30.57985624 6.50359404 32.75 6.5625 C34.22527221 6.60571897 35.70053287 6.64933432 37.17578125 6.69335938 C40.78373166 6.80016518 44.39181133 6.90153153 48 7 C48 7.33 48 7.66 48 8 C38.1 8 28.2 8 18 8 C18 8.66 18 9.32 18 10 C15.03 9.505 15.03 9.505 12 9 C12 8.34 12 7.68 12 7 C11.42765625 6.87753906 10.8553125 6.75507813 10.265625 6.62890625 C7.90046809 5.97237132 5.92793203 5.06276488 3.75 3.9375 C3.04359375 3.57527344 2.3371875 3.21304688 1.609375 2.83984375 C1.07828125 2.56269531 0.5471875 2.28554687 0 2 C0 1.34 0 0.68 0 0 Z " fill="#210962" transform="translate(61,186)"/>
<path d="M0 0 C2.25 -0.25 2.25 -0.25 5 0 C7.125 1.9375 7.125 1.9375 9 4 C9.99 4.33 10.98 4.66 12 5 C12.33 5.99 12.66 6.98 13 8 C13.99 8.33 14.98 8.66 16 9 C16 9.66 16 10.32 16 11 C17.32 10.67 18.64 10.34 20 10 C20.04125 10.61875 20.0825 11.2375 20.125 11.875 C20.41375 12.57625 20.7025 13.2775 21 14 C23.99615946 15.3045656 23.99615946 15.3045656 27 16 C26.34 16.33 25.68 16.66 25 17 C24.67 17.66 24.34 18.32 24 19 C12.28125 10.2109375 12.28125 10.2109375 10.16015625 8.61621094 C8.67290546 7.50346227 7.18038762 6.39773003 5.68359375 5.29785156 C4.95269531 4.75870117 4.22179687 4.21955078 3.46875 3.6640625 C2.80294922 3.17631348 2.13714844 2.68856445 1.45117188 2.18603516 C0.97228516 1.79464355 0.49339844 1.40325195 0 1 C0 0.67 0 0.34 0 0 Z " fill="#230F60" transform="translate(510,157)"/>
<path d="M0 0 C0.66 0.99 1.32 1.98 2 3 C-0.75 8.75 -0.75 8.75 -3 11 C-3.64638935 12.17599407 -4.26987397 13.36475055 -4.875 14.5625 C-6.70397396 17.87665581 -6.70397396 17.87665581 -9.25 18.9375 C-9.8275 18.958125 -10.405 18.97875 -11 19 C-11.33 18.34 -11.66 17.68 -12 17 C-11.30132812 16.02417969 -10.60265625 15.04835937 -9.8828125 14.04296875 C-8.96351652 12.75783049 -8.04424707 11.47267325 -7.125 10.1875 C-6.66480469 9.54490234 -6.20460937 8.90230469 -5.73046875 8.24023438 C-5.28574219 7.61826172 -4.84101563 6.99628906 -4.3828125 6.35546875 C-3.97434082 5.78465576 -3.56586914 5.21384277 -3.14501953 4.62573242 C-2.07137168 3.10133561 -1.0342601 1.55139015 0 0 Z " fill="#240D68" transform="translate(219,171)"/>
<path d="M0 0 C0.66 0.33 1.32 0.66 2 1 C-2.95 7.435 -2.95 7.435 -8 14 C-8.66 12.68 -9.32 11.36 -10 10 C-9.01 8.68 -8.02 7.36 -7 6 C-7.66 5.01 -8.32 4.02 -9 3 C-8.67 2.34 -8.34 1.68 -8 1 C-7.05125 1.020625 -6.1025 1.04125 -5.125 1.0625 C-2.09333717 1.22551826 -2.09333717 1.22551826 0 0 Z " fill="#F9F3F9" transform="translate(175,117)"/>
<path d="M0 0 C0.33 0.66 0.66 1.32 1 2 C0.1875 4.375 0.1875 4.375 -1 7 C-1.33 7.7425 -1.66 8.485 -2 9.25 C-3 11 -3 11 -5 12 C-5 12.66 -5 13.32 -5 14 C-6.32 14.33 -7.64 14.66 -9 15 C-9.33 16.32 -9.66 17.64 -10 19 C-11.32 18.67 -12.64 18.34 -14 18 C-11.85536521 15.18658422 -9.70909177 12.37442284 -7.5625 9.5625 C-6.95083984 8.76005859 -6.33917969 7.95761719 -5.70898438 7.13085938 C-5.12568359 6.36708984 -4.54238281 5.60332031 -3.94140625 4.81640625 C-3.40201416 4.10943604 -2.86262207 3.40246582 -2.30688477 2.67407227 C-1 1 -1 1 0 0 Z " fill="#220A61" transform="translate(230,46)"/>
<path d="M0 0 C14.19 0 28.38 0 43 0 C42.67 1.32 42.34 2.64 42 4 C40.86691406 3.67257813 39.73382812 3.34515625 38.56640625 3.0078125 C31.13817807 1.35709513 23.50228969 1.78930291 15.9375 1.875 C14.38867766 1.88504992 12.83984901 1.89417221 11.29101562 1.90234375 C7.52718572 1.92419793 3.76366377 1.95861657 0 2 C0 1.34 0 0.68 0 0 Z " fill="#1D045B" transform="translate(509,193)"/>
<path d="M0 0 C11.22 0 22.44 0 34 0 C34.495 1.98 34.495 1.98 35 4 C33.86820312 3.67386719 32.73640625 3.34773437 31.5703125 3.01171875 C26.95726739 1.86099658 22.60852824 1.73666776 17.875 1.8125 C16.71677734 1.8134668 16.71677734 1.8134668 15.53515625 1.81445312 C12.08300384 1.84091767 9.02953882 1.99386607 5.6328125 2.69921875 C4.76398438 2.79847656 3.89515625 2.89773437 3 3 C2.01 2.01 1.02 1.02 0 0 Z " fill="#1C0459" transform="translate(387,193)"/>
<path d="M0 0 C0.66 0.33 1.32 0.66 2 1 C1.2575 2.2375 1.2575 2.2375 0.5 3.5 C-1.48171072 8.12399169 -2.09917775 12.22105317 -0.23828125 16.92578125 C1.68131115 20.46906051 4.00458057 23.32551837 7 26 C6.34 26.33 5.68 26.66 5 27 C1.951155 25.95697408 0.389885 24.65914933 -1.25 21.88671875 C-3.86262011 16.05368148 -4.76020782 11.20962202 -3 5 C-1.4375 1.9375 -1.4375 1.9375 0 0 Z " fill="#250E63" transform="translate(454,131)"/>
<path d="M0 0 C0.66 0.33 1.32 0.66 2 1 C1.505 1.7425 1.01 2.485 0.5 3.25 C-1.31923475 6.06318188 -1.31923475 6.06318188 -1 10 C-1.99 10.66 -2.98 11.32 -4 12 C-4.33 12.33 -4.66 12.66 -5 13 C-5.66 13.66 -6.32 14.32 -7 15 C-7.69748583 16.31747324 -8.36959957 17.64914193 -9 19 C-9.66 18.67 -10.32 18.34 -11 18 C-10.55077798 12.92474701 -8.02986697 10.00297892 -4.9375 6.1875 C-4.22883789 5.2912793 -4.22883789 5.2912793 -3.50585938 4.37695312 C-2.34527494 2.91156874 -1.17371168 1.45489124 0 0 Z " fill="#F4EDFA" transform="translate(211,130)"/>
<path d="M0 0 C12.87 0 25.74 0 39 0 C37 5 37 5 34 7 C33.505 6.01 33.505 6.01 33 5 C33.66 3.68 34.32 2.36 35 1 C17.675 1.495 17.675 1.495 0 2 C0 1.34 0 0.68 0 0 Z " fill="#DED2F8" transform="translate(199,34)"/>
<path d="M0 0 C0.82062424 0.00007553 1.64124847 0.00015106 2.48674011 0.00022888 C3.80875175 0.00797081 3.80875175 0.00797081 5.1574707 0.01586914 C6.5161602 0.01799156 6.5161602 0.01799156 7.90229797 0.02015686 C10.79598286 0.02575538 13.68959044 0.03830758 16.58325195 0.05102539 C18.54483938 0.05604058 20.50642801 0.06060346 22.46801758 0.06469727 C27.27729217 0.07572432 32.08650895 0.09298792 36.89575195 0.11352539 C36.89575195 0.44352539 36.89575195 0.77352539 36.89575195 1.11352539 C35.57969971 1.15110962 35.57969971 1.15110962 34.23706055 1.18945312 C30.96058005 1.28497923 27.68425297 1.38418782 24.40795898 1.48583984 C22.9939403 1.5289679 21.57987693 1.57065707 20.16577148 1.61083984 C18.12510755 1.66908289 16.08466401 1.7326168 14.04418945 1.79711914 C12.81877441 1.83377686 11.59335938 1.87043457 10.33081055 1.90820312 C7.11822984 2.10022732 4.06413176 2.57471076 0.89575195 3.11352539 C-1.22924805 2.73852539 -1.22924805 2.73852539 -3.10424805 2.11352539 C-3.84674805 1.92790039 -4.58924805 1.74227539 -5.35424805 1.55102539 C-5.93174805 1.40665039 -6.50924805 1.26227539 -7.10424805 1.11352539 C-4.37318294 0.20317036 -2.80531566 -0.00863174 0 0 Z " fill="#1B0457" transform="translate(165.104248046875,192.886474609375)"/>
<path d="M0 0 C1.32 0.66 2.64 1.32 4 2 C2.5360077 5.06875309 0.85990364 7.90434743 -1 10.75 C-1.515625 11.54921875 -2.03125 12.3484375 -2.5625 13.171875 C-3.2740625 14.07679688 -3.2740625 14.07679688 -4 15 C-4.66 15 -5.32 15 -6 15 C-6 13.68 -6 12.36 -6 11 C-5.34 11 -4.68 11 -4 11 C-3.896875 10.29875 -3.79375 9.5975 -3.6875 8.875 C-2.90640997 5.60862353 -1.57941257 2.9528148 0 0 Z " fill="#230B66" transform="translate(113,142)"/>
<path d="M0 0 C0.33 0 0.66 0 1 0 C1.125 2.375 1.125 2.375 1 5 C0.34 5.66 -0.32 6.32 -1 7 C-1.64767793 9.57061311 -1.64767793 9.57061311 -2 12 C-2.99 12 -3.98 12 -5 12 C-6.01866229 13.65532623 -7.01810813 15.32260138 -8 17 C-8.99 17.33 -9.98 17.66 -11 18 C-11 14.63294627 -10.56362139 14.03409692 -8.62890625 11.42578125 C-8.13712891 10.75869141 -7.64535156 10.09160156 -7.13867188 9.40429688 C-6.61853516 8.71400391 -6.09839844 8.02371094 -5.5625 7.3125 C-4.7880957 6.2596582 -4.7880957 6.2596582 -3.99804688 5.18554688 C-1.18902973 1.40714342 -1.18902973 1.40714342 0 0 Z " fill="#281065" transform="translate(204,80)"/>
<path d="M0 0 C0.66 0 1.32 0 2 0 C1.67 0.66 1.34 1.32 1 2 C0.67 1.34 0.34 0.68 0 0 Z M-2 1 C-1.34 1 -0.68 1 0 1 C0 1.66 0 2.32 0 3 C-0.99 3.33 -1.98 3.66 -3 4 C-2.67 3.01 -2.34 2.02 -2 1 Z M-4 4 C-3.67 5.32 -3.34 6.64 -3 8 C-4.75 10.5 -4.75 10.5 -7 13 C-7.515625 13.70125 -8.03125 14.4025 -8.5625 15.125 C-9.92966626 16.90826034 -11.37483311 18.45222201 -13 20 C-13.66 19.34 -14.32 18.68 -15 18 C-11.37 13.38 -7.74 8.76 -4 4 Z " fill="#F4EAFB" transform="translate(200,35)"/>
<path d="M0 0 C0.763125 0.2784375 1.52625 0.556875 2.3125 0.84375 C2.869375 1.0603125 3.42625 1.276875 4 1.5 C4 1.83 4 2.16 4 2.5 C3.18909912 2.40150757 3.18909912 2.40150757 2.36181641 2.30102539 C-5.61774071 1.41159471 -13.6058121 1.17111487 -21.625 0.9375 C-23.02474932 0.89419373 -24.42448904 0.85057613 -25.82421875 0.80664062 C-29.21606451 0.70137645 -32.60797354 0.59923991 -36 0.5 C-36 0.17 -36 -0.16 -36 -0.5 C-32.33346352 -0.6696134 -28.66675358 -0.83515203 -25 -1 C-23.97003906 -1.04769531 -22.94007813 -1.09539063 -21.87890625 -1.14453125 C-5.05265655 -1.8947462 -5.05265655 -1.8947462 0 0 Z " fill="#200A5E" transform="translate(331,33.5)"/>
<path d="M0 0 C5.47613669 1.18112752 8.3094788 2.52664097 12 7 C12 7.66 12 8.32 12 9 C12.66 9 13.32 9 14 9 C14 9.66 14 10.32 14 11 C14.99 11.33 15.98 11.66 17 12 C16.34 12.66 15.68 13.32 15 14 C14.67 14.66 14.34 15.32 14 16 C13.57589844 15.41992188 13.15179687 14.83984375 12.71484375 14.2421875 C8.86573113 9.11567707 4.95948418 5.04855852 0 1 C0 0.67 0 0.34 0 0 Z " fill="#210C5F" transform="translate(522,37)"/>
<path d="M0 0 C0.66 0.99 1.32 1.98 2 3 C1.57847656 3.61488281 1.15695313 4.22976562 0.72265625 4.86328125 C0.17480469 5.67152344 -0.37304688 6.47976562 -0.9375 7.3125 C-1.48277344 8.11300781 -2.02804688 8.91351563 -2.58984375 9.73828125 C-4.13837326 12.0258143 -4.13837326 12.0258143 -5 15 C-5.66 15.66 -6.32 16.32 -7 17 C-7 16.34 -7 15.68 -7 15 C-7.66 15 -8.32 15 -9 15 C-8.39889717 10.99264783 -6.33397972 8.44530629 -3.9375 5.25 C-2.83728516 3.77273437 -2.83728516 3.77273437 -1.71484375 2.265625 C-1.14894531 1.51796875 -0.58304688 0.7703125 0 0 Z " fill="#F3EBFB" transform="translate(121,139)"/>
<path d="M0 0 C0.33 0.99 0.66 1.98 1 3 C-0.4375 5.6875 -0.4375 5.6875 -2 8 C-1.34 8 -0.68 8 0 8 C0.33 7.34 0.66 6.68 1 6 C1.66 6.33 2.32 6.66 3 7 C2.67 7.66 2.34 8.32 2 9 C1.030625 9.2475 0.06125 9.495 -0.9375 9.75 C-4.30479818 10.7104212 -4.30479818 10.7104212 -5.375 14.125 C-5.58125 15.07375 -5.7875 16.0225 -6 17 C-6.99 16.01 -7.98 15.02 -9 14 C-7.45158425 10.65291949 -5.50894136 7.75332488 -3.375 4.75 C-2.74335938 3.85796875 -2.11171875 2.9659375 -1.4609375 2.046875 C-0.73777344 1.03367187 -0.73777344 1.03367187 0 0 Z " fill="#EEE8F5" transform="translate(138,116)"/>
<path d="M0 0 C3.40312738 1.05875074 6.01353231 2.00902154 9 4 C9 3.34 9 2.68 9 2 C10.32 1.67 11.64 1.34 13 1 C12.34 2.32 11.68 3.64 11 5 C11.99 4.67 12.98 4.34 14 4 C13.67 5.65 13.34 7.3 13 9 C9.32048886 8.39237431 7.14008504 6.80451225 4.25 4.5 C3.45078125 3.8709375 2.6515625 3.241875 1.828125 2.59375 C1.22484375 2.0678125 0.6215625 1.541875 0 1 C0 0.67 0 0.34 0 0 Z " fill="#F3EDF8" transform="translate(496,182)"/>
<path d="M0 0 C1.26328125 0.11085937 2.5265625 0.22171875 3.828125 0.3359375 C4.79234375 0.43132812 5.7565625 0.52671875 6.75 0.625 C6.75 1.285 6.75 1.945 6.75 2.625 C6.10933594 2.68558594 5.46867187 2.74617187 4.80859375 2.80859375 C-0.23423313 3.29709412 -5.2412102 3.86279286 -10.25 4.625 C-10.58 3.635 -10.91 2.645 -11.25 1.625 C-7.48564408 -0.86555871 -4.38382623 -0.40590984 0 0 Z " fill="#1F0464" transform="translate(281.25,159.375)"/>
<path d="M0 0 C-3.46994436 3.9036874 -7.55224006 6.36588975 -12 9 C-12.33 6.69 -12.66 4.38 -13 2 C-9.98968256 1.06576355 -9.13349732 0.95550089 -6 2 C-6 1.34 -6 0.68 -6 0 C-3 -1 -3 -1 0 0 Z " fill="#F1EBF7" transform="translate(507,128)"/>
<path d="M0 0 C0.66 0.99 1.32 1.98 2 3 C0.68 4.32 -0.64 5.64 -2 7 C-1.67 7.99 -1.34 8.98 -1 10 C-5.455 13.465 -5.455 13.465 -10 17 C-10.66 16.67 -11.32 16.34 -12 16 C-8.04 10.72 -4.08 5.44 0 0 Z " fill="#F2E8FA" transform="translate(151,99)"/>
<path d="M0 0 C0.66 0 1.32 0 2 0 C2 0.99 2 1.98 2 3 C1.01 3 0.02 3 -1 3 C-1.268125 3.61875 -1.53625 4.2375 -1.8125 4.875 C-3 7 -3 7 -6 9 C-8.6875 9.125 -8.6875 9.125 -11 9 C-11 8.01 -11 7.02 -11 6 C-10.28972656 5.65066406 -9.57945313 5.30132812 -8.84765625 4.94140625 C-7.92855469 4.48636719 -7.00945312 4.03132812 -6.0625 3.5625 C-4.68771484 2.88380859 -4.68771484 2.88380859 -3.28515625 2.19140625 C-1.09471096 1.19474606 -1.09471096 1.19474606 0 0 Z " fill="#210863" transform="translate(124,185)"/>
<path d="M0 0 C1.24546405 2.49092811 0.7767578 3.41080733 0 6 C1.32 6 2.64 6 4 6 C4 6.99 4 7.98 4 9 C3.113125 8.979375 2.22625 8.95875 1.3125 8.9375 C-1.62169631 8.99286219 -4.15493696 9.3305734 -7 10 C-5.33248852 6.05860922 -2.77289351 3.2107188 0 0 Z " fill="#21016C" transform="translate(135,173)"/>
<path d="M0 0 C2.96404505 2.80804268 5.44499019 5.18315774 7 9 C5.35 9.66 3.7 10.32 2 11 C0 9 0 9 -0.1953125 6.8359375 C-0.17210937 6.02382813 -0.14890625 5.21171875 -0.125 4.375 C-0.10695313 3.55773438 -0.08890625 2.74046875 -0.0703125 1.8984375 C-0.04710937 1.27195313 -0.02390625 0.64546875 0 0 Z " fill="#F5F0FA" transform="translate(343,43)"/>
<path d="M0 0 C0.99 0 1.98 0 3 0 C3 1.32 3 2.64 3 4 C3.66 4 4.32 4 5 4 C5.33 3.01 5.66 2.02 6 1 C6.66 1 7.32 1 8 1 C7.40072174 4.35595828 6.15377564 6.37801226 4 9 C3.01 8.67 2.02 8.34 1 8 C0.67 5.36 0.34 2.72 0 0 Z " fill="#200569" transform="translate(162,182)"/>
<path d="M0 0 C0.66 0 1.32 0 2 0 C0.96825681 2.06348639 -0.06178392 4.1105607 -1.1875 6.125 C-1.455625 6.74375 -1.72375 7.3625 -2 8 C-1.67 8.66 -1.34 9.32 -1 10 C-1.99 10 -2.98 10 -4 10 C-4.33 10.99 -4.66 11.98 -5 13 C-6.65 13.33 -8.3 13.66 -10 14 C-3.07432432 3.40371622 -3.07432432 3.40371622 0 0 Z " fill="#EEE7F8" transform="translate(174,68)"/>
<path d="M0 0 C0.87454834 0.00523682 1.74909668 0.01047363 2.65014648 0.01586914 C3.59438477 0.0190918 4.53862305 0.02231445 5.51147461 0.02563477 C6.50469727 0.03401367 7.49791992 0.04239258 8.52124023 0.05102539 C9.51833008 0.05553711 10.51541992 0.06004883 11.54272461 0.06469727 C14.01478872 0.07652532 16.48673541 0.0930069 18.95874023 0.11352539 C18.62874023 1.43352539 18.29874023 2.75352539 17.95874023 4.11352539 C17.62874023 3.45352539 17.29874023 2.79352539 16.95874023 2.11352539 C14.3742825 2.00533879 11.79436671 1.92615302 9.20874023 1.86352539 C8.11432617 1.81325195 8.11432617 1.81325195 6.99780273 1.76196289 C3.32391084 1.69516486 1.42986838 1.7162997 -1.43188477 4.12915039 C-1.96297852 4.78399414 -2.49407227 5.43883789 -3.04125977 6.11352539 C-3.70125977 6.11352539 -4.36125977 6.11352539 -5.04125977 6.11352539 C-2.74869997 0.15286993 -2.74869997 0.15286993 0 0 Z " fill="#1C0958" transform="translate(301.041259765625,63.886474609375)"/>
<path d="M0 0 C10.56 0 21.12 0 32 0 C28.39199829 1.80400085 27.50161856 2.24793241 23.8125 2.16015625 C23.03132813 2.14919922 22.25015625 2.13824219 21.4453125 2.12695312 C20.23488281 2.09504883 20.23488281 2.09504883 19 2.0625 C17.39592677 2.02790737 15.79174907 1.99780537 14.1875 1.97265625 C13.47980469 1.95468994 12.77210938 1.93672363 12.04296875 1.91821289 C9.90445249 2.0038251 8.05264482 2.41159437 6 3 C6 2.34 6 1.68 6 1 C4.02 1 2.04 1 0 1 C0 0.67 0 0.34 0 0 Z " fill="#1B045C" transform="translate(322,193)"/>
<path d="M0 0 C4.1970092 -0.35281338 6.06522073 0.35814568 9.3125 3 C10.00988281 3.556875 10.70726562 4.11375 11.42578125 4.6875 C11.94527344 5.120625 12.46476562 5.55375 13 6 C12.67 6.99 12.34 7.98 12 9 C11.34 9 10.68 9 10 9 C10 8.34 10 7.68 10 7 C9.34 7 8.68 7 8 7 C7.67 6.34 7.34 5.68 7 5 C6.01 5 5.02 5 4 5 C1.8125 3.0625 1.8125 3.0625 0 1 C0 0.67 0 0.34 0 0 Z " fill="#260B68" transform="translate(472,168)"/>
<path d="M0 0 C0.66 0 1.32 0 2 0 C2.08107583 1.93681161 2.13922475 3.8745934 2.1875 5.8125 C2.22230469 6.89144531 2.25710938 7.97039062 2.29296875 9.08203125 C2 12 2 12 0.48828125 13.88671875 C-0.00285156 14.25410156 -0.49398438 14.62148437 -1 15 C-1 12.69 -1 10.38 -1 8 C-1.66 8 -2.32 8 -3 8 C-3 5.69 -3 3.38 -3 1 C-2.01 1.495 -2.01 1.495 -1 2 C-0.67 1.34 -0.34 0.68 0 0 Z " fill="#28027F" transform="translate(449,135)"/>
<path d="M0 0 C0.99 0.33 1.98 0.66 3 1 C1.21285146 3.3161206 -0.57941805 5.62793272 -2.375 7.9375 C-2.88289062 8.59685547 -3.39078125 9.25621094 -3.9140625 9.93554688 C-4.64882812 10.87817383 -4.64882812 10.87817383 -5.3984375 11.83984375 C-5.84880371 12.42113037 -6.29916992 13.00241699 -6.76318359 13.60131836 C-8 15 -8 15 -10 16 C-10 15.01 -10 14.02 -10 13 C-9.34 13 -8.68 13 -8 13 C-7.67 11.68 -7.34 10.36 -7 9 C-6.34 9 -5.68 9 -5 9 C-4.731875 7.88625 -4.46375 6.7725 -4.1875 5.625 C-3 2 -3 2 0 0 Z " fill="#271266" transform="translate(176,62)"/>
<path d="M0 0 C0.66 0.99 1.32 1.98 2 3 C1.38511719 3.87011719 1.38511719 3.87011719 0.7578125 4.7578125 C-2.21028607 9.06084535 -4.68426126 12.8686189 -6 18 C-6.33 18 -6.66 18 -7 18 C-6.44854729 12.76119922 -5.57077907 8.02649303 -4 3 C-2.68 2.67 -1.36 2.34 0 2 C0 1.34 0 0.68 0 0 Z " fill="#210C5B" transform="translate(395,41)"/>
<path d="M0 0 C2.8842454 0.34485543 3.8207818 0.78255407 5.703125 3.06640625 C6.21359375 3.89011719 6.7240625 4.71382812 7.25 5.5625 C8.03117187 6.80193359 8.03117187 6.80193359 8.828125 8.06640625 C9.21484375 8.70449219 9.6015625 9.34257812 10 10 C9.34 10.66 8.68 11.32 8 12 C7.4225 11.2575 6.845 10.515 6.25 9.75 C4.10390345 7.00740053 4.10390345 7.00740053 1.75 4.875 C0 3 0 3 0 0 Z " fill="#20086E" transform="translate(493,140)"/>
<path d="M0 0 C0.625 1.8125 0.625 1.8125 1 4 C0.01 5.485 0.01 5.485 -1 7 C-0.34 7.33 0.32 7.66 1 8 C-2.25154807 10.04383021 -5.42229452 11.61702141 -9 13 C-8.06398754 11.58235006 -7.1261208 10.16592432 -6.1875 8.75 C-5.66542969 7.96109375 -5.14335937 7.1721875 -4.60546875 6.359375 C-3.12865878 4.18907519 -1.59310127 2.08586232 0 0 Z " fill="#28106A" transform="translate(260,116)"/>
<path d="M0 0 C0.33 0 0.66 0 1 0 C1.8125 2.6875 1.8125 2.6875 2 6 C-0.4375 8.875 -0.4375 8.875 -3 11 C-3.66 10.67 -4.32 10.34 -5 10 C-4.49809325 5.60831597 -2.96518146 3.24316722 0 0 Z " fill="#290873" transform="translate(180,113)"/>
<path d="M0 0 C0.99 0.33 1.98 0.66 3 1 C2.09232898 2.44319692 1.17343894 3.87934106 0.25 5.3125 C-0.26046875 6.11300781 -0.7709375 6.91351563 -1.296875 7.73828125 C-3.00277761 10.00368861 -4.65808145 11.42684167 -7 13 C-6.56157941 8.17737354 -5.6182281 6.17965499 -2 3 C-1.34 2.01 -0.68 1.02 0 0 Z " fill="#230E61" transform="translate(189,155)"/>
<path d="M0 0 C0.99 0 1.98 0 3 0 C2.67 2.31 2.34 4.62 2 7 C0.02 7.66 -1.96 8.32 -4 9 C-4 4.94519369 -2.45129908 3.15167025 0 0 Z " fill="#280F70" transform="translate(171,124)"/>
<path d="M0 0 C0 0.99 0 1.98 0 3 C-1.609375 4.421875 -1.609375 4.421875 -3.75 5.75 C-4.44609375 6.19859375 -5.1421875 6.6471875 -5.859375 7.109375 C-8.38473764 8.16007332 -9.47856025 7.93134261 -12 7 C-7.375 3 -7.375 3 -4 3 C-3.67 2.34 -3.34 1.68 -3 1 C-2.01 0.67 -1.02 0.34 0 0 Z " fill="#F3E9FB" transform="translate(124,183)"/>
<path d="M0 0 C0.99 0.33 1.98 0.66 3 1 C3 1.66 3 2.32 3 3 C2.21625 3.0825 1.4325 3.165 0.625 3.25 C-2.14749104 3.72806339 -2.14749104 3.72806339 -3.3125 6.0625 C-3.539375 6.701875 -3.76625 7.34125 -4 8 C-4.99 8 -5.98 8 -7 8 C-7.66 8.66 -8.32 9.32 -9 10 C-9.33 9.01 -9.66 8.02 -10 7 C-8.4050992 5.80008401 -6.79873853 4.61538682 -5.1875 3.4375 C-3.84751953 2.44556641 -3.84751953 2.44556641 -2.48046875 1.43359375 C-1.66191406 0.96050781 -0.84335937 0.48742187 0 0 Z " fill="#200C5D" transform="translate(525,115)"/>
<path d="M0 0 C0.66 0.33 1.32 0.66 2 1 C1.34 3.31 0.68 5.62 0 8 C-0.639375 8.103125 -1.27875 8.20625 -1.9375 8.3125 C-2.9584375 8.6528125 -2.9584375 8.6528125 -4 9 C-4.33 9.99 -4.66 10.98 -5 12 C-7.0625 13.1875 -7.0625 13.1875 -9 14 C-7.45158425 10.65291949 -5.50894136 7.75332488 -3.375 4.75 C-2.74335938 3.85796875 -2.11171875 2.9659375 -1.4609375 2.046875 C-0.73777344 1.03367187 -0.73777344 1.03367187 0 0 Z " fill="#F0E4FA" transform="translate(230,104)"/>
<path d="M0 0 C1.65 0.33 3.3 0.66 5 1 C4.45773019 4.79588866 2.79872437 6.47211993 0 9 C-0.66 7.35 -1.32 5.7 -2 4 C-1.67 3.67 -1.34 3.34 -1 3 C-0.67 2.01 -0.34 1.02 0 0 Z " fill="#2D1073" transform="translate(154,86)"/>
<path d="M0 0 C1.32 0.66 2.64 1.32 4 2 C2.5140084 6.59306496 0.14985318 9.43569245 -3 13 C-4.24546405 10.50907189 -3.7767578 9.58919267 -3 7 C-2.01 7 -1.02 7 0 7 C0 4.69 0 2.38 0 0 Z " fill="#270B66" transform="translate(240,83)"/>
<path d="M0 0 C0.66 0.66 1.32 1.32 2 2 C-0.31 4.97 -2.62 7.94 -5 11 C-5.66 10.67 -6.32 10.34 -7 10 C-5.51643192 4.31298905 -5.51643192 4.31298905 -2.9375 2.75 C-2.298125 2.5025 -1.65875 2.255 -1 2 C-0.67 1.34 -0.34 0.68 0 0 Z " fill="#250D66" transform="translate(180,168)"/>
<path d="M0 0 C2.64 0 5.28 0 8 0 C7.01 0.495 7.01 0.495 6 1 C6.33 1.66 6.66 2.32 7 3 C8.32 3 9.64 3 11 3 C11 4.65 11 6.3 11 8 C6.71522208 5.69281189 3.27708863 3.67033927 0 0 Z " fill="#F5ECF9" transform="translate(474,166)"/>
<path d="M0 0 C1.27351308 2.54702616 0.80191925 3.4282945 0.0625 6.125 C-0.13214844 6.84945312 -0.32679688 7.57390625 -0.52734375 8.3203125 C-0.76130859 9.15175781 -0.76130859 9.15175781 -1 10 C-2.65 10.33 -4.3 10.66 -6 11 C-6 7.39426104 -5.18292538 6.58663434 -3 3.8125 C-2.443125 3.09707031 -1.88625 2.38164063 -1.3125 1.64453125 C-0.879375 1.10183594 -0.44625 0.55914062 0 0 Z " fill="#2B146C" transform="translate(276,95)"/>
<path d="M0 0 C3.15330554 0.60694155 5.18888867 1.6416665 7.75 3.5625 C8.67039062 4.24505859 8.67039062 4.24505859 9.609375 4.94140625 C10.29773438 5.46541016 10.29773438 5.46541016 11 6 C10.67 6.66 10.34 7.32 10 8 C8.32700041 7.34938905 6.66140763 6.67966676 5 6 C4.2575 5.71125 3.515 5.4225 2.75 5.125 C1 4 1 4 0.25 1.875 C0.1675 1.25625 0.085 0.6375 0 0 Z " fill="#EEE6F7" transform="translate(529,173)"/>
<path d="M0 0 C0.66 0.99 1.32 1.98 2 3 C1.01 3.33 0.02 3.66 -1 4 C-1 4.66 -1 5.32 -1 6 C-1.66 6 -2.32 6 -3 6 C-3 6.99 -3 7.98 -3 9 C-5.5 11.1875 -5.5 11.1875 -8 13 C-7.39665691 9.29496359 -5.77525763 7.14031852 -3.4375 4.25 C-2.79683594 3.45078125 -2.15617188 2.6515625 -1.49609375 1.828125 C-1.00238281 1.22484375 -0.50867188 0.6215625 0 0 Z " fill="#210C5E" transform="translate(234,152)"/>
<path d="M0 0 C0.66 0.99 1.32 1.98 2 3 C1.24172908 4.17487036 0.46792245 5.33972592 -0.3125 6.5 C-0.74175781 7.1496875 -1.17101562 7.799375 -1.61328125 8.46875 C-2.07089844 8.9740625 -2.52851563 9.479375 -3 10 C-3.99 10 -4.98 10 -6 10 C-4.34832443 6.4213696 -2.21713508 3.25179812 0 0 Z M-8 11 C-7.67 11.66 -7.34 12.32 -7 13 C-7.66 12.67 -8.32 12.34 -9 12 C-8.67 11.67 -8.34 11.34 -8 11 Z " fill="#EFE6F9" transform="translate(162,84)"/>
<path d="M0 0 C0.33 0.66 0.66 1.32 1 2 C1.66 2.33 2.32 2.66 3 3 C2 5 2 5 0.0625 5.875 C-2.42001234 7.22909764 -2.96871397 8.42178493 -4 11 C-4.66 11 -5.32 11 -6 11 C-4.74194623 6.49197399 -3.09592835 3.5087188 0 0 Z " fill="#F1E9F7" transform="translate(271,127)"/>
<path d="M0 0 C3.72114571 2.31537955 6.61229661 4.28579473 9 8 C6 8 6 8 3 6 C1.67432801 5.31822584 0.34246312 4.64808564 -1 4 C-0.67 2.68 -0.34 1.36 0 0 Z " fill="#F2EAFA" transform="translate(522,38)"/>
<path d="M0 0 C-2.85508218 1.440578 -5.72317245 2.84334242 -8.625 4.1875 C-9.40101563 4.55230469 -10.17703125 4.91710938 -10.9765625 5.29296875 C-11.64429688 5.52628906 -12.31203125 5.75960937 -13 6 C-13.66 5.67 -14.32 5.34 -15 5 C-12.5879397 1.26130653 -12.5879397 1.26130653 -10.3125 0.25 C-6.86266368 -0.12295528 -3.46947836 -0.05782464 0 0 Z " fill="#250B65" transform="translate(415,34)"/>
<path d="M0 0 C0.66 0 1.32 0 2 0 C2.75 2.75 2.75 2.75 3 6 C1.0625 8.375 1.0625 8.375 -1 10 C-1 9.34 -1 8.68 -1 8 C-1.99 8.33 -2.98 8.66 -4 9 C-4 8.01 -4 7.02 -4 6 C-2.68 5.34 -1.36 4.68 0 4 C0 2.68 0 1.36 0 0 Z " fill="#2B0A7B" transform="translate(171,175)"/>
<path d="M0 0 C2.6875 -0.5 2.6875 -0.5 6 0 C8.08132026 2.45240837 9.55490096 5.1353789 11 8 C8.23156893 6.68315779 5.7422712 5.22149755 3.25 3.4375 C2.63640625 3.00308594 2.0228125 2.56867188 1.390625 2.12109375 C0.93171875 1.75113281 0.4728125 1.38117188 0 1 C0 0.67 0 0.34 0 0 Z " fill="#F4EAFA" transform="translate(485,174)"/>
<path d="M0 0 C0.33 0.66 0.66 1.32 1 2 C-1.85276137 4.93200474 -4.65079784 7.64315404 -8 10 C-8 8.68 -8 7.36 -8 6 C-6.25 4.296875 -6.25 4.296875 -4 2.75 C-3.2575 2.22921875 -2.515 1.7084375 -1.75 1.171875 C-1.1725 0.78515625 -0.595 0.3984375 0 0 Z " fill="#F3EAF9" transform="translate(492,103)"/>
<path d="M0 0 C0.99 0.66 1.98 1.32 3 2 C2.4225 2.53625 1.845 3.0725 1.25 3.625 C-1.2147481 6.22667855 -3.0791012 8.98144474 -5 12 C-5.99 11.67 -6.98 11.34 -8 11 C-5.36 7.37 -2.72 3.74 0 0 Z " fill="#F0E8F9" transform="translate(239,92)"/>
<path d="M0 0 C2.31 0.33 4.62 0.66 7 1 C6.01 1.495 6.01 1.495 5 2 C4.34786708 4.02463255 4.34786708 4.02463255 4 6 C3.01 6 2.02 6 1 6 C1 5.01 1 4.02 1 3 C0.34 3 -0.32 3 -1 3 C-0.67 2.01 -0.34 1.02 0 0 Z " fill="#280881" transform="translate(278,92)"/>
<path d="M0 0 C-1.36687222 3.98671063 -3.15195093 6.88494633 -6 10 C-6.66 10 -7.32 10 -8 10 C-7.67 8.35 -7.34 6.7 -7 5 C-6.34 5 -5.68 5 -5 5 C-4.87625 4.360625 -4.7525 3.72125 -4.625 3.0625 C-4.41875 2.381875 -4.2125 1.70125 -4 1 C-2 0 -2 0 0 0 Z " fill="#200A5C" transform="translate(252,74)"/>
<path d="M0 0 C3.82792868 1.5595265 6.36359864 3.83631836 9 7 C8.8125 9.3125 8.8125 9.3125 8 11 C6.33333333 9.33333333 4.66666667 7.66666667 3 6 C2.401875 5.46375 1.80375 4.9275 1.1875 4.375 C0 3 0 3 0 0 Z " fill="#1D0959" transform="translate(341,38)"/>
<path d="M0 0 C0.66 0.33 1.32 0.66 2 1 C2.99 0.67 3.98 0.34 5 0 C3.375 5.75 3.375 5.75 0 8 C0 7.01 0 6.02 0 5 C-0.99 4.67 -1.98 4.34 -3 4 C-2.01 2.68 -1.02 1.36 0 0 Z " fill="#280C77" transform="translate(225,163)"/>
<path d="M0 0 C1.32 0.33 2.64 0.66 4 1 C3.34 1.66 2.68 2.32 2 3 C2.33 3.66 2.66 4.32 3 5 C1.35 6.98 -0.3 8.96 -2 11 C-2.33 9.68 -2.66 8.36 -3 7 C-2.34 7 -1.68 7 -1 7 C-0.67 4.69 -0.34 2.38 0 0 Z " fill="#27047F" transform="translate(193,143)"/>
<path d="M0 0 C0.66 0.33 1.32 0.66 2 1 C1.34 2.32 0.68 3.64 0 5 C-0.99 5 -1.98 5 -3 5 C-3 5.66 -3 6.32 -3 7 C-2.01 7.33 -1.02 7.66 0 8 C-2.31 8.33 -4.62 8.66 -7 9 C-5.44499019 5.18315774 -2.96404505 2.80804268 0 0 Z " fill="#F8EEFB" transform="translate(462,125)"/>
<path d="M0 0 C0 3 0 3 -1 6 C-4.4934597 7.74672985 -7.06845568 9 -11 9 C-7.67149253 5.40521193 -4.01028669 2.77635232 0 0 Z " fill="#EDE2F8" transform="translate(481,111)"/>
<path d="M0 0 C0.33 0 0.66 0 1 0 C1.3690205 14.78132118 1.3690205 14.78132118 -1 21 C-1.33 21 -1.66 21 -2 21 C-2.09765625 14.84765625 -2.09765625 14.84765625 -2 13 C-1.67 12.67 -1.34 12.34 -1 12 C-0.76572222 9.98405418 -0.58663876 7.961526 -0.4375 5.9375 C-0.35371094 4.83277344 -0.26992188 3.72804688 -0.18359375 2.58984375 C-0.12300781 1.73519531 -0.06242188 0.88054687 0 0 Z " fill="#1E0264" transform="translate(539,86)"/>
<path d="M0 0 C0.66 0 1.32 0 2 0 C2.33 1.32 2.66 2.64 3 4 C1.35 4.66 -0.3 5.32 -2 6 C-2 6.66 -2 7.32 -2 8 C-3.32 8.33 -4.64 8.66 -6 9 C-5.05016642 7.49460339 -4.08988109 5.99579653 -3.125 4.5 C-2.59132813 3.6646875 -2.05765625 2.829375 -1.5078125 1.96875 C-0.76144531 0.99421875 -0.76144531 0.99421875 0 0 Z " fill="#2D136C" transform="translate(286,81)"/>
<path d="M0 0 C7.57142857 4.14285714 7.57142857 4.14285714 10 7 C6.37673261 8.2077558 5.35853631 7.54311128 2 6 C2.33 5.34 2.66 4.68 3 4 C1.68 3.34 0.36 2.68 -1 2 C-0.67 1.34 -0.34 0.68 0 0 Z " fill="#F2E8F8" transform="translate(489,143)"/>
<path d="M0 0 C1.13643966 3.40931897 0.86747764 4.00335456 -0.4375 7.1875 C-0.72496094 7.90292969 -1.01242188 8.61835938 -1.30859375 9.35546875 C-1.53675781 9.89816406 -1.76492187 10.44085938 -2 11 C-2.99 10.34 -3.98 9.68 -5 9 C-5.1875 5.375 -5.1875 5.375 -5 2 C-4.01 2.33 -3.02 2.66 -2 3 C-1.34 2.01 -0.68 1.02 0 0 Z " fill="#290983" transform="translate(247,138)"/>
<path d="M0 0 C1.32 0.33 2.64 0.66 4 1 C4 1.66 4 2.32 4 3 C3.01 3.495 3.01 3.495 2 4 C1.67 4.99 1.34 5.98 1 7 C-0.65 6.67 -2.3 6.34 -4 6 C-2.68 4.02 -1.36 2.04 0 0 Z " fill="#2B0E74" transform="translate(250,130)"/>
<path d="M0 0 C0.66 0.33 1.32 0.66 2 1 C0.61122646 4.35620271 -0.91677965 6.07298728 -4 8 C-4.66 8 -5.32 8 -6 8 C-6 6.35 -6 4.7 -6 3 C-5.195625 2.690625 -4.39125 2.38125 -3.5625 2.0625 C-1.10919595 1.23664655 -1.10919595 1.23664655 0 0 Z " fill="#EFE8FA" transform="translate(525,111)"/>
<path d="M0 0 C2.625 0.375 2.625 0.375 5 1 C2.525 4.465 2.525 4.465 0 8 C-0.66 7.67 -1.32 7.34 -2 7 C-2.125 4.625 -2.125 4.625 -2 2 C-1.34 1.34 -0.68 0.68 0 0 Z " fill="#F6EFF9" transform="translate(178,108)"/>
<path d="M0 0 C0.33 0 0.66 0 1 0 C1.33 2.64 1.66 5.28 2 8 C1.01 7.67 0.02 7.34 -1 7 C-1 7.99 -1 8.98 -1 10 C-2.32 9.34 -3.64 8.68 -5 8 C-4.19185349 6.66402348 -3.37836819 5.331275 -2.5625 4 C-2.11003906 3.2575 -1.65757812 2.515 -1.19140625 1.75 C-0.79824219 1.1725 -0.40507813 0.595 0 0 Z " fill="#2B116E" transform="translate(536,101)"/>
<path d="M0 0 C0.99 0.33 1.98 0.66 3 1 C1.22054913 5.04420651 -1.39529673 8.46078487 -4 12 C-4.66 11.34 -5.32 10.68 -6 10 C-5.34 8.68 -4.68 7.36 -4 6 C-3.01 6 -2.02 6 -1 6 C-0.67 4.02 -0.34 2.04 0 0 Z " fill="#271065" transform="translate(262,56)"/>
<path d="M0 0 C0.66 0 1.32 0 2 0 C2.061875 0.928125 2.061875 0.928125 2.125 1.875 C2.41375 2.57625 2.7025 3.2775 3 4 C5.99615946 5.3045656 5.99615946 5.3045656 9 6 C8.01 6.495 8.01 6.495 7 7 C6.67 7.66 6.34 8.32 6 9 C3.36 7.02 0.72 5.04 -2 3 C-1.34 2.67 -0.68 2.34 0 2 C0 1.34 0 0.68 0 0 Z " fill="#2C126E" transform="translate(528,167)"/>
<path d="M0 0 C0.66 0.66 1.32 1.32 2 2 C1.34 2 0.68 2 0 2 C0.33 3.32 0.66 4.64 1 6 C-2 8 -2 8 -5 8 C-3.62845496 5.04590299 -2.01136276 2.55991624 0 0 Z " fill="#F2EAFA" transform="translate(185,165)"/>
<path d="M0 0 C3.53372712 1.96318174 6.24479785 4.04070881 9 7 C5.59687262 5.94124926 2.98646769 4.99097846 0 3 C-0.33 3.66 -0.66 4.32 -1 5 C-1.66 4.67 -2.32 4.34 -3 4 C-2.01 2.68 -1.02 1.36 0 0 Z " fill="#1D0A60" transform="translate(465,160)"/>
<path d="M0 0 C2.31 0 4.62 0 7 0 C8 3 8 3 7.0625 5.1875 C6.5365625 6.0846875 6.5365625 6.0846875 6 7 C5.7525 6.360625 5.505 5.72125 5.25 5.0625 C4.18437567 2.81258459 4.18437567 2.81258459 1.875 2.25 C0.946875 2.12625 0.946875 2.12625 0 2 C0 1.34 0 0.68 0 0 Z " fill="#27077C" transform="translate(517,159)"/>
<path d="M0 0 C0.33 1.32 0.66 2.64 1 4 C0.01 4.495 0.01 4.495 -1 5 C-1 5.99 -1 6.98 -1 8 C-3 9.6875 -3 9.6875 -5 11 C-5.66 10.67 -6.32 10.34 -7 10 C-3.535 5.05 -3.535 5.05 0 0 Z " fill="#2D1666" transform="translate(162,136)"/>
<path d="M0 0 C0.99 0 1.98 0 3 0 C1.47291037 3.43595166 -0.59927045 6.11912454 -3 9 C-4 7 -4 7 -3.1875 4.5 C-2 2 -2 2 0 0 Z " fill="#1E0663" transform="translate(166,132)"/>
<path d="M0 0 C1.65 1.65 3.3 3.3 5 5 C3 7 3 7 0 9 C-1.125 2.25 -1.125 2.25 0 0 Z " fill="#EEE5F8" transform="translate(295,127)"/>
<path d="M0 0 C2.22825644 2.22825644 2.69239369 3.65761628 3.625 6.625 C3.88539062 7.44226563 4.14578125 8.25953125 4.4140625 9.1015625 C4.60742188 9.72804687 4.80078125 10.35453125 5 11 C2.5625 9.9375 2.5625 9.9375 0 8 C-0.875 4.375 -0.875 4.375 -1 1 C-0.67 0.67 -0.34 0.34 0 0 Z " fill="#2F1566" transform="translate(50,168)"/>
<path d="M0 0 C2.64 1.65 5.28 3.3 8 5 C7.34 5.66 6.68 6.32 6 7 C3.375 6.625 3.375 6.625 1 6 C0.67 4.02 0.34 2.04 0 0 Z " fill="#F3ECFD" transform="translate(521,166)"/>
<path d="M0 0 C1.65 0 3.3 0 5 0 C5.33 0.99 5.66 1.98 6 3 C4.66666667 4.33333333 3.33333333 5.66666667 2 7 C0.4375 4.625 0.4375 4.625 -1 2 C-0.67 1.34 -0.34 0.68 0 0 Z " fill="#F2EFEF" transform="translate(469,158)"/>
<path d="M0 0 C3.465 1.98 3.465 1.98 7 4 C6.67 4.99 6.34 5.98 6 7 C3.03 6.505 3.03 6.505 0 6 C0.99 5.67 1.98 5.34 3 5 C2.34 4.34 1.68 3.68 1 3 C0.34 3 -0.32 3 -1 3 C-0.67 2.01 -0.34 1.02 0 0 Z " fill="#F2EAFA" transform="translate(500,151)"/>
<path d="M0 0 C1 3 1 3 -0.125 5.5625 C-2.23794891 8.30933359 -3.72518425 9.02640613 -7 10 C-2.85714286 2.42857143 -2.85714286 2.42857143 0 0 Z " fill="#230F5B" transform="translate(151,152)"/>
<path d="M0 0 C0.66 0.33 1.32 0.66 2 1 C1.24172908 2.17487036 0.46792245 3.33972592 -0.3125 4.5 C-0.74175781 5.1496875 -1.17101562 5.799375 -1.61328125 6.46875 C-2.07089844 6.9740625 -2.52851563 7.479375 -3 8 C-3.99 8 -4.98 8 -6 8 C-4.55746343 4.63408134 -2.66735273 2.48952921 0 0 Z " fill="#F1E9F8" transform="translate(150,150)"/>
<path d="M0 0 C0.66 0.99 1.32 1.98 2 3 C-0.31 5.97 -2.62 8.94 -5 12 C-5.33 11.01 -5.66 10.02 -6 9 C-4.78515625 6.73828125 -4.78515625 6.73828125 -3.0625 4.3125 C-2.49660156 3.50425781 -1.93070313 2.69601563 -1.34765625 1.86328125 C-0.90292969 1.24839844 -0.45820313 0.63351563 0 0 Z " fill="#2C1567" transform="translate(198,143)"/>
<path d="M0 0 C0.99 0.33 1.98 0.66 3 1 C2.02471263 2.33617352 1.04466681 3.6688751 0.0625 5 C-0.48277344 5.7425 -1.02804688 6.485 -1.58984375 7.25 C-2.28787109 8.11625 -2.28787109 8.11625 -3 9 C-3.33 9 -3.66 9 -4 9 C-4.25 6.75 -4.25 6.75 -4 4 C-2 1.6875 -2 1.6875 0 0 Z " fill="#230D64" transform="translate(122,134)"/>
<path d="M0 0 C3.3 0 6.6 0 10 0 C10 0.99 10 1.98 10 3 C6.7 3 3.4 3 0 3 C0 2.01 0 1.02 0 0 Z " fill="#1C055B" transform="translate(277,120)"/>
<path d="M0 0 C0.99 0.66 1.98 1.32 3 2 C1.71937515 3.7074998 0.38232443 5.37373596 -1 7 C-1.66 7 -2.32 7 -3 7 C-3.33 5.35 -3.66 3.7 -4 2 C-2.68 1.34 -1.36 0.68 0 0 Z " fill="#210866" transform="translate(223,109)"/>
<path d="M0 0 C2.97 0.33 5.94 0.66 9 1 C9 1.66 9 2.32 9 3 C7.35 3 5.7 3 4 3 C3.67 3.66 3.34 4.32 3 5 C1.5 3.625 1.5 3.625 0 2 C0 1.34 0 0.68 0 0 Z " fill="#210368" transform="translate(319,193)"/>
<path d="M0 0 C0.66 0 1.32 0 2 0 C2.08927756 3.21399233 1.8534403 5.9062789 1 9 C1 9.66 1 10.32 1 11 C0.01 11 -0.98 11 -2 11 C-1 3.57142857 -1 3.57142857 0 0 Z " fill="#280380" transform="translate(540,96)"/>
<path d="M0 0 C0.99 0.33 1.98 0.66 3 1 C0.03 4.96 0.03 4.96 -3 9 C-3.66 8.01 -4.32 7.02 -5 6 C-3.625 4 -3.625 4 -2 2 C-1.34 2 -0.68 2 0 2 C0 1.34 0 0.68 0 0 Z " fill="#F1E7F8" transform="translate(292,70)"/>
<path d="M0 0 C2.97 0.495 2.97 0.495 6 1 C5.67 1.66 5.34 2.32 5 3 C5.66 3.33 6.32 3.66 7 4 C6.67 4.99 6.34 5.98 6 7 C2.535 5.02 2.535 5.02 -1 3 C-0.67 2.01 -0.34 1.02 0 0 Z " fill="#2B126F" transform="translate(334,34)"/>
<path d="M0 0 C0.99 0.33 1.98 0.66 3 1 C1.55746343 4.36591866 -0.33264727 6.51047079 -3 9 C-2.44271087 5.65626525 -1.64826111 2.96687001 0 0 Z " fill="#F5EEFB" transform="translate(274,92)"/>
<path d="M0 0 C2 2 2 2 2 4 C1.34 4 0.68 4 0 4 C-0.33 5.32 -0.66 6.64 -1 8 C-2.32 7.67 -3.64 7.34 -5 7 C-3.35 4.69 -1.7 2.38 0 0 Z " fill="#2A1268" transform="translate(221,57)"/>
<path d="M0 0 C1.45742463 -0.08096803 2.91612807 -0.13917774 4.375 -0.1875 C5.18710937 -0.22230469 5.99921875 -0.25710937 6.8359375 -0.29296875 C7.55007813 -0.19628906 8.26421875 -0.09960938 9 0 C9.66 0.99 10.32 1.98 11 3 C7.37 2.67 3.74 2.34 0 2 C0 1.34 0 0.68 0 0 Z " fill="#220D5F" transform="translate(510,33)"/>
<path d="M0 0 C1.32 0 2.64 0 4 0 C4 0.66 4 1.32 4 2 C7.96 2 11.92 2 16 2 C16 2.33 16 2.66 16 3 C13.70839681 3.02692484 11.41670454 3.04636124 9.125 3.0625 C7.84882813 3.07410156 6.57265625 3.08570313 5.2578125 3.09765625 C2 3 2 3 0 2 C0 1.34 0 0.68 0 0 Z " fill="#280083" transform="translate(190,1)"/>
<path d="M0 0 C0.66 0.33 1.32 0.66 2 1 C-0.97 4.96 -0.97 4.96 -4 9 C-4.66 8.67 -5.32 8.34 -6 8 C-4.55746343 4.63408134 -2.66735273 2.48952921 0 0 Z " fill="#F1E5FB" transform="translate(217,172)"/>
<path d="M0 0 C0.66 0 1.32 0 2 0 C1.75 2.375 1.75 2.375 1 5 C-1.0625 6.3125 -1.0625 6.3125 -3 7 C-3 3.47967572 -2.29648649 2.5614657 0 0 Z " fill="#240C65" transform="translate(241,142)"/>
<path d="M0 0 C0.66 0.33 1.32 0.66 2 1 C-0.31 3.97 -2.62 6.94 -5 10 C-5.33 8.68 -5.66 7.36 -6 6 C-3.625 3.3125 -3.625 3.3125 -1 1 C-0.67 0.67 -0.34 0.34 0 0 Z " fill="#25105D" transform="translate(135,118)"/>
<path d="M0 0 C3.25696479 0.41755959 4.63443291 0.63443291 7 3 C6.34 3.66 5.68 4.32 5 5 C2.375 4.625 2.375 4.625 0 4 C-0.33 3.01 -0.66 2.02 -1 1 C-0.67 0.67 -0.34 0.34 0 0 Z " fill="#F4F2F1" transform="translate(215,54)"/>
<path d="M0 0 C0.66 0.33 1.32 0.66 2 1 C1.34 2.98 0.68 4.96 0 7 C-0.66 7 -1.32 7 -2 7 C-2.66 7.66 -3.32 8.32 -4 9 C-3.46930939 5.17902761 -2.50298434 2.93828597 0 0 Z " fill="#280F67" transform="translate(237,36)"/>
<path d="M0 0 C1.32 0 2.64 0 4 0 C2.75023244 3.65316671 2.32901247 4.78065836 -1 7 C-1.33 6.34 -1.66 5.68 -2 5 C-1.0625 2.375 -1.0625 2.375 0 0 Z " fill="#EDE2F9" transform="translate(234,34)"/>
<path d="M0 0 C1.98 0 3.96 0 6 0 C6.33 1.32 6.66 2.64 7 4 C4.69 3.34 2.38 2.68 0 2 C0 1.34 0 0.68 0 0 Z " fill="#230762" transform="translate(415,193)"/>
<path d="M0 0 C0.99386719 0.10183594 1.98773438 0.20367187 3.01171875 0.30859375 C3.77097656 0.39238281 4.53023437 0.47617188 5.3125 0.5625 C1.41998944 3.15750704 -0.2005531 2.42840203 -4.6875 1.5625 C-6.02667261 1.25346017 -7.36403254 0.93307089 -8.6875 0.5625 C-5.3763987 -0.54120043 -3.44001051 -0.36423641 0 0 Z " fill="#1D0467" transform="translate(166.6875,193.4375)"/>
<path d="M0 0 C0.625 1.8125 0.625 1.8125 1 4 C-1 7 -1 7 -3 8 C-3.66 7.34 -4.32 6.68 -5 6 C-3.35 4.02 -1.7 2.04 0 0 Z " fill="#EEE1F5" transform="translate(173,181)"/>
<path d="M0 0 C2.475 0.495 2.475 0.495 5 1 C3.69593116 3.01920337 2.36176581 5.01924973 1 7 C0.67 7 0.34 7 0 7 C0 4.69 0 2.38 0 0 Z " fill="#EBE5F5" transform="translate(208,68)"/>
<path d="M0 0 C3.465 1.98 3.465 1.98 7 4 C5.68 4.99 4.36 5.98 3 7 C0 2.25 0 2.25 0 0 Z " fill="#F1E9F9" transform="translate(336,38)"/>
<path d="M0 0 C1.32 0.66 2.64 1.32 4 2 C4 2.66 4 3.32 4 4 C5.32 4.66 6.64 5.32 8 6 C7.01 6.495 7.01 6.495 6 7 C3.69 5.35 1.38 3.7 -1 2 C-0.67 1.34 -0.34 0.68 0 0 Z " fill="#231062" transform="translate(541,178)"/>
<path d="M0 0 C0.66 0.99 1.32 1.98 2 3 C0.35 4.65 -1.3 6.3 -3 8 C-3.66 7.67 -4.32 7.34 -5 7 C-3.35 4.69 -1.7 2.38 0 0 Z " fill="#2C1569" transform="translate(219,171)"/>
<path d="M0 0 C0.66 0.66 1.32 1.32 2 2 C0.02 4.97 0.02 4.97 -2 8 C-2.66 7.67 -3.32 7.34 -4 7 C-4 6.34 -4 5.68 -4 5 C-3.34 5 -2.68 5 -2 5 C-1.7834375 4.0409375 -1.7834375 4.0409375 -1.5625 3.0625 C-1 1 -1 1 0 0 Z " fill="#F1E7FA" transform="translate(138,165)"/>
<path d="M0 0 C1.32 0.99 2.64 1.98 4 3 C2.02 3.99 0.04 4.98 -2 6 C-1.125 1.125 -1.125 1.125 0 0 Z " fill="#F2E9F9" transform="translate(292,153)"/>
<path d="M0 0 C1.53445094 3.06890187 0.54984289 5.70094266 0 9 C-0.33 8.34 -0.66 7.68 -1 7 C-1.66 7 -2.32 7 -3 7 C-2.38722388 4.03824877 -1.74627478 2.61941217 0 0 Z " fill="#EAE3F8" transform="translate(115,147)"/>
<path d="M0 0 C0.66 0.33 1.32 0.66 2 1 C0.3125 3.0625 0.3125 3.0625 -2 5 C-4.75 4.75 -4.75 4.75 -7 4 C-4.61426621 2.10786631 -2.92824652 0.97608217 0 0 Z " fill="#EDE0F6" transform="translate(279,123)"/>
<path d="M0 0 C2.31 0.66 4.62 1.32 7 2 C4 4 4 4 1 5 C0.67 3.35 0.34 1.7 0 0 Z " fill="#2B0E76" transform="translate(272,121)"/>
<path d="M0 0 C0.625 1.875 0.625 1.875 1 4 C-0.95216435 5.95216435 -2.53199953 6.84826645 -5 8 C-3.8141763 4.62496331 -2.72426311 2.35277269 0 0 Z " fill="#210B61" transform="translate(180,113)"/>
<path d="M0 0 C0.66 0.66 1.32 1.32 2 2 C1.01 3.485 1.01 3.485 0 5 C-0.66 5 -1.32 5 -2 5 C-2.66 6.32 -3.32 7.64 -4 9 C-4.66 8.67 -5.32 8.34 -6 8 C-4.02 5.36 -2.04 2.72 0 0 Z " fill="#261064" transform="translate(267,107)"/>
<path d="M0 0 C0.33 0.66 0.66 1.32 1 2 C-0.28062485 3.7074998 -1.61767557 5.37373596 -3 7 C-3.66 7 -4.32 7 -5 7 C-4.1875 4.0625 -4.1875 4.0625 -3 1 C-2.01 0.67 -1.02 0.34 0 0 Z " fill="#210C64" transform="translate(153,94)"/>
<path d="M0 0 C0.99 0.33 1.98 0.66 3 1 C1.625 2.5 1.625 2.5 0 4 C-0.66 4 -1.32 4 -2 4 C-2.66 5.32 -3.32 6.64 -4 8 C-4 4.09161134 -2.49432124 2.88405893 0 0 Z " fill="#1C075A" transform="translate(213,69)"/>
<path d="M0 0 C1.98 0.66 3.96 1.32 6 2 C5.01 3.485 5.01 3.485 4 5 C3.34 4.67 2.68 4.34 2 4 C1.01 3.67 0.02 3.34 -1 3 C-0.67 2.01 -0.34 1.02 0 0 Z " fill="#2C0E76" transform="translate(176,56)"/>
<path d="M0 0 C2.31 0 4.62 0 7 0 C7 0.99 7 1.98 7 3 C4.36 3 1.72 3 -1 3 C-0.67 2.01 -0.34 1.02 0 0 Z " fill="#1C0465" transform="translate(287,32)"/>
<path d="M0 0 C0.33 0.66 0.66 1.32 1 2 C-0.21480305 5.42353587 -2.01771223 7.01180815 -5 9 C-5.66 8.67 -6.32 8.34 -7 8 C-4.69 5.36 -2.38 2.72 0 0 Z " fill="#301968" transform="translate(135,173)"/>
<path d="M0 0 C0.66 0.33 1.32 0.66 2 1 C0.70700306 3.88437779 -0.65941363 5.87219421 -3 8 C-3 4.42424104 -1.91159393 2.94704065 0 0 Z " fill="#EEE0F7" transform="translate(155,142)"/>
<path d="M0 0 C1.32 0 2.64 0 4 0 C4 1.32 4 2.64 4 4 C2.02 4 0.04 4 -2 4 C-1.34 2.68 -0.68 1.36 0 0 Z " fill="#220682" transform="translate(518,122)"/>
<path d="M0 0 C-1.32 1.32 -2.64 2.64 -4 4 C-5.32 3.34 -6.64 2.68 -8 2 C-8 1.34 -8 0.68 -8 0 C-2.25 -1.125 -2.25 -1.125 0 0 Z " fill="#EBE5F1" transform="translate(177,118)"/>
<path d="M0 0 C1.65 0 3.3 0 5 0 C4.67 1.32 4.34 2.64 4 4 C2.68 3.67 1.36 3.34 0 3 C0 2.01 0 1.02 0 0 Z " fill="#200768" transform="translate(483,104)"/>
<path d="M0 0 C0.33 0.66 0.66 1.32 1 2 C0.34 2.66 -0.32 3.32 -1 4 C-1 1 -1 1 0 0 Z M-2 3 C-2.66 4.32 -3.32 5.64 -4 7 C-5.32 6.67 -6.64 6.34 -8 6 C-4.25 3 -4.25 3 -2 3 Z " fill="#EADDF6" transform="translate(503,95)"/>
<path d="M0 0 C0.33 0.99 0.66 1.98 1 3 C-0.40445835 5.2636564 -2.1967913 7.0208685 -4 9 C-4.33 8.01 -4.66 7.02 -5 6 C-4.34 6 -3.68 6 -3 6 C-2.67 4.68 -2.34 3.36 -2 2 C-1.34 2 -0.68 2 0 2 C0 1.34 0 0.68 0 0 Z " fill="#1F0B5A" transform="translate(171,69)"/>
<path d="M0 0 C0.66 0.33 1.32 0.66 2 1 C1.1875 3.4375 1.1875 3.4375 0 6 C-0.99 6.33 -1.98 6.66 -3 7 C-2.25 2.25 -2.25 2.25 0 0 Z " fill="#260380" transform="translate(193,33)"/>
<path d="M0 0 C3.3 0 6.6 0 10 0 C9.67 0.99 9.34 1.98 9 3 C8.01 3 7.02 3 6 3 C6 2.34 6 1.68 6 1 C4.02 1 2.04 1 0 1 C0 0.67 0 0.34 0 0 Z " fill="#1D0750" transform="translate(322,193)"/>
<path d="M0 0 C1.32 0.33 2.64 0.66 4 1 C4 1.66 4 2.32 4 3 C4.99 3.33 5.98 3.66 7 4 C6.67 4.66 6.34 5.32 6 6 C3.37812506 4.95125002 2.20628639 4.35068687 0.75 1.875 C0.5025 1.25625 0.255 0.6375 0 0 Z " fill="#EFE2F9" transform="translate(56,179)"/>
<path d="M0 0 C0.66 0.99 1.32 1.98 2 3 C1.01 3.66 0.02 4.32 -1 5 C-2.19232613 7.05003955 -2.19232613 7.05003955 -3 9 C-3.33 8.34 -3.66 7.68 -4 7 C-1.55555556 1.55555556 -1.55555556 1.55555556 0 0 Z " fill="#200764" transform="translate(139,168)"/>
<path d="M0 0 C0.66 0 1.32 0 2 0 C0.55746343 3.36591866 -1.33264727 5.51047079 -4 8 C-4 4.06830895 -2.60580385 2.83572772 0 0 Z " fill="#EFE7F8" transform="translate(232,151)"/>
<path d="M0 0 C-1.36983503 3.16115776 -1.9890638 3.9927092 -5 6 C-5 4.68 -5 3.36 -5 2 C-2 0 -2 0 0 0 Z " fill="#240C5F" transform="translate(463,123)"/>
<path d="M0 0 C0.33 0 0.66 0 1 0 C1.1875 2.375 1.1875 2.375 1 5 C0.01 5.66 -0.98 6.32 -2 7 C-2.66 6.34 -3.32 5.68 -4 5 C-2.69254251 3.31295807 -1.35827971 1.64639965 0 0 Z " fill="#341A6D" transform="translate(204,80)"/>
<path d="M0 0 C0.66 0.33 1.32 0.66 2 1 C1.67 2.32 1.34 3.64 1 5 C-0.32 5.33 -1.64 5.66 -3 6 C-1.125 1.125 -1.125 1.125 0 0 Z " fill="#250C61" transform="translate(299,64)"/>
</svg>
